<svg width="777" height="675" viewBox="0 0 777 675" fill="none" xmlns="http://www.w3.org/2000/svg">
<g style="mix-blend-mode:overlay">
<path d="M531.036 569.056L530.644 568.238L532.141 567.213L527.962 558.862L527.629 561.624L525.724 569.874L525.908 570.33L527.467 569.831L527.859 570.649L523.262 572.982L522.87 572.164L524.126 571.279L518.979 560.835L517.515 561.359L517.123 560.541L521.815 558.233L522.207 559.051L520.856 559.911L525.105 568.384L525.387 565.811L527.343 557.372L526.995 556.769L525.315 557.337L524.923 556.519L529.615 554.212L530.007 555.03L528.656 555.89L533.803 566.334L535.242 565.905L535.634 566.723L531.036 569.056Z" fill="black"/>
<path d="M519.66 574.258C519.153 574.632 518.792 574.84 518.43 575.049C518.069 575.258 517.707 575.466 517.371 575.58C515.976 576.225 514.778 576.515 513.802 576.355C512.826 576.196 512.142 575.707 511.706 574.673C511.34 573.76 511.258 572.924 511.583 572.094C511.907 571.264 512.491 570.606 513.239 570.093C512.206 570.529 511.274 570.585 510.419 570.356C509.589 570.032 509.025 569.473 508.633 568.655C508.058 567.381 508.028 566.354 508.498 565.36C508.968 564.365 510.009 563.523 511.645 562.74C512.342 562.417 513.014 562.19 513.54 562.127C514.092 561.969 514.618 561.907 514.928 561.888C515.239 561.869 515.455 561.825 515.55 561.851L516.547 564.97L515.729 565.362L514.236 563.332C513.545 563.249 512.778 563.451 511.745 563.887C510.952 564.184 510.514 564.678 510.336 565.343C510.158 566.008 510.264 566.75 510.631 567.663C510.953 568.36 511.422 568.893 512.061 569.166C512.701 569.44 513.538 569.358 514.571 568.922L515.726 568.417L516.187 569.355L515.153 569.791C514.697 569.974 514.31 570.278 513.898 570.677C513.58 571.101 513.358 571.551 513.231 572.026C513.198 572.527 513.236 573.148 513.488 573.725C513.785 574.517 514.279 574.955 514.849 575.108C515.419 575.261 516.066 575.129 516.859 574.832C517.341 574.553 517.797 574.37 518.089 574.041C518.381 573.712 518.552 573.452 518.603 573.262L518.25 571.538L519.31 571.007L520.65 573.607C520.529 573.676 520.168 573.885 519.66 574.258Z" fill="black"/>
<path d="M504.437 579.754L505.946 579.445L506.312 580.358L503.935 581.249C503.573 581.458 503.022 581.615 502.445 581.868C501.868 582.121 501.506 582.33 501.265 582.469C499.68 583.063 498.412 583.232 497.557 583.003C496.702 582.774 496.043 582.19 495.702 581.182C495.405 580.389 495.324 579.553 495.623 578.818C495.826 578.058 496.41 577.399 497.133 576.982C496.005 577.392 495.048 577.543 494.218 577.219C493.388 576.895 492.729 576.311 492.388 575.303C491.883 574.149 491.973 573.053 492.563 571.989C493.154 570.925 494.315 570.013 496.236 569.306C496.693 569.123 497.029 569.009 497.46 568.921C498.347 568.649 498.924 568.396 499.14 568.352L501.423 567.436L501.694 568.324L500.273 569.064L504.437 579.754ZM496.533 570.098C495.379 570.604 494.631 571.117 494.237 571.826C493.843 572.535 493.95 573.277 494.221 574.164C494.588 575.077 495.056 575.61 495.696 575.884C496.336 576.157 497.172 576.076 498.206 575.64C499.36 575.134 500.127 574.932 500.489 574.723L498.524 569.511C498.118 569.505 497.541 569.757 496.533 570.098ZM499.796 576.167L498.883 576.534C498.09 576.831 497.557 577.299 497.284 577.939C497.011 578.579 497.023 579.295 497.415 580.113C497.712 580.905 498.18 581.438 498.725 581.686C499.269 581.934 500.106 581.853 501.14 581.417C501.596 581.233 501.958 581.025 502.414 580.841L502.776 580.633L500.925 575.757C500.684 575.896 500.348 576.01 499.796 576.167Z" fill="black"/>
<path d="M489.599 586.473L487.678 587.181L479.268 576.371L478.095 576.566L477.824 575.679L482.528 574.087L482.8 574.975L481.405 575.62L483.107 578.011L488.268 576.236L488.22 573.372L486.617 573.655L486.345 572.767L490.593 571.359L490.865 572.247L489.806 572.778L489.599 586.473ZM487.612 584.005L488.567 585.382L488.43 583.613L488.273 577.358L483.784 578.905L487.612 584.005Z" fill="black"/>
<path d="M474.983 577.158C476.123 577.464 476.997 578.004 477.77 578.923C478.542 579.843 479.168 580.928 479.502 582.341C479.862 583.66 479.936 584.902 479.7 586.163C479.464 587.424 478.899 588.393 478.074 589.191C477.249 589.988 476.26 590.64 475.036 591.025C474.149 591.296 472.976 591.491 471.639 591.541L471.017 591.578L470.261 588.319L471.484 587.934L472.642 590.078C472.832 590.129 473.212 590.231 473.617 590.237C474.023 590.244 474.575 590.086 475.221 589.954C475.988 589.752 476.616 589.309 477.08 588.721C477.543 588.132 477.867 587.302 477.906 586.396C477.945 585.489 477.845 584.342 477.53 583.239C477.214 582.136 476.778 581.102 476.171 580.328C475.563 579.555 474.93 578.876 474.195 578.577C473.461 578.278 472.58 578.144 471.692 578.415C471.046 578.548 470.564 578.826 470.323 578.965C470.082 579.104 469.79 579.434 469.618 579.693L469.394 581.67L468.222 581.865L467.908 579.235C468.123 579.191 468.485 578.982 468.967 578.704C469.354 578.4 469.715 578.191 470.172 578.008C470.533 577.799 471.085 577.642 471.636 577.484C472.695 576.953 473.843 576.853 474.983 577.158Z" fill="black"/>
<path d="M460.896 591.718C460.521 592.738 459.956 593.707 459.277 594.34C458.478 595.042 457.634 595.529 456.677 595.68C455.479 595.97 454.382 595.88 453.458 595.531C452.533 595.181 451.684 594.546 451.007 593.652C450.33 592.757 449.799 591.698 449.56 590.31C449.251 588.801 449.202 587.464 449.413 586.298C449.649 585.037 450.214 584.068 450.944 583.245C451.673 582.422 452.612 581.961 453.715 581.645C454.913 581.355 456.035 581.35 457.055 581.725C458.075 582.1 458.828 582.71 459.531 583.509C460.208 584.403 460.739 585.462 460.978 586.851L463.9 586.208L462.677 580.889L461.099 581.077L460.923 580.215L465.931 579.011L466.107 579.873L464.643 580.397L467.316 591.707L468.774 591.588L468.95 592.45L464.063 593.585L463.886 592.723L465.351 592.199L464.216 587.311L461.268 588.049C461.292 589.481 461.176 590.672 460.896 591.718ZM458.829 592.59C459.255 591.38 459.257 589.853 458.79 587.792C458.343 586.043 457.698 584.648 456.805 583.797C455.913 582.947 454.893 582.572 453.6 582.836C452.401 583.127 451.697 583.855 451.296 584.969C450.896 586.084 450.964 587.732 451.43 589.793C451.878 591.542 452.428 592.912 453.32 593.762C454.187 594.708 455.233 594.988 456.336 594.672C457.604 594.502 458.403 593.8 458.829 592.59Z" fill="black"/>
<path d="M439.622 590.906C439.058 590.348 438.235 589.618 437.368 588.673C436.735 587.994 436.362 587.487 436.033 587.195C435.704 586.903 435.444 586.731 435.254 586.68L434.563 586.597L434.387 585.735L436.637 585.319C436.948 585.301 437.302 585.498 437.701 585.91C438.1 586.323 438.733 587.001 439.41 587.896C440.252 588.936 440.885 589.615 441.448 590.173C441.916 590.706 442.366 590.929 442.797 590.841L443.97 590.645L443.032 585.403L441.384 585.471L441.207 584.609L446.234 583.715L446.385 584.672L444.946 585.101L446.973 596.543L448.5 596.545L448.651 597.502L443.745 598.326L443.645 597.179L445.11 596.655L444.197 591.318L442.593 591.601L439.772 597.567L441.325 597.474L441.476 598.431L436.975 599.263L436.824 598.305L438.264 597.876L441.326 591.77C440.825 591.738 440.211 591.37 439.622 590.906Z" fill="black"/>
<path d="M431.268 586.733C432.262 587.203 432.99 587.907 433.521 588.966C434.078 589.93 434.463 591.154 434.702 592.542C434.941 593.93 434.8 595.217 434.374 596.427C433.974 597.541 433.313 598.485 432.514 599.187C431.619 599.865 430.681 600.326 429.413 600.496C427.499 600.798 425.883 600.365 424.757 599.248C423.63 598.131 422.82 596.59 422.595 594.391C422.381 592.907 422.522 591.621 422.923 590.506C423.349 589.296 423.984 588.448 424.808 587.65C425.703 586.973 426.736 586.537 427.909 586.342C429.177 586.172 430.273 586.262 431.268 586.733ZM432.041 597.533C432.562 596.348 432.754 594.872 432.503 592.767C432.296 590.879 431.746 589.509 430.904 588.469C430.063 587.428 429.043 587.053 427.87 587.248C426.697 587.443 425.828 588.025 425.307 589.21C424.786 590.394 424.569 591.966 424.845 593.975C425.052 595.864 425.602 597.234 426.469 598.179C427.241 599.099 428.236 599.569 429.503 599.399C430.625 599.394 431.519 598.717 432.041 597.533Z" fill="black"/>
<path d="M419.894 600.288L421.396 600.385L421.452 601.316L418.942 601.56C418.536 601.554 417.985 601.711 417.364 601.749C416.717 601.881 416.312 601.874 416.096 601.918C414.423 602.081 413.136 601.94 412.357 601.426C411.578 600.912 411.161 600.189 411.036 599.136C410.954 598.3 411.183 597.444 411.552 596.83C411.92 596.216 412.668 595.703 413.556 595.432C412.409 595.532 411.433 595.372 410.654 594.858C409.875 594.344 409.483 593.526 409.427 592.594C409.353 591.352 409.633 590.306 410.483 589.414C411.333 588.521 412.703 587.972 414.782 587.816C415.213 587.727 415.619 587.734 416.119 587.766C417.051 587.711 417.672 587.673 417.862 587.724L420.372 587.48L420.428 588.412L418.919 588.72L419.894 600.288ZM414.907 588.868C413.665 588.942 412.752 589.309 412.289 589.898C411.73 590.461 411.527 591.221 411.678 592.178C411.734 593.11 412.056 593.808 412.575 594.151C413.095 594.493 413.95 594.723 415.002 594.597C416.244 594.523 417.081 594.441 417.417 594.327L416.961 588.807C416.581 588.705 415.96 588.742 414.907 588.868ZM416.465 595.6L415.413 595.726C414.576 595.807 413.878 596.129 413.536 596.649C413.193 597.168 412.989 597.928 413.07 598.765C413.152 599.602 413.379 600.274 413.898 600.616C414.418 600.959 415.178 601.163 416.23 601.038C416.661 600.949 417.162 600.982 417.618 600.798L418.049 600.71L417.612 595.5C417.301 595.519 416.991 595.537 416.465 595.6Z" fill="black"/>
<path d="M390.542 603.016L390.486 602.084L392.089 601.801L391.736 590.196L389.949 590.023L389.893 589.091L395.121 588.965L395.177 589.896L393.599 590.084L393.927 601.784L399.872 601.645L399.544 589.946L397.852 589.798L397.796 588.866L403.025 588.74L403.081 589.671L401.597 589.885L401.951 601.49L403.523 601.707L403.578 602.639L390.542 603.016Z" fill="black"/>
<path d="M386.134 589.816C386.982 590.451 387.685 591.25 388.095 592.379C388.531 593.412 388.701 594.68 388.725 596.112C388.653 597.519 388.417 598.78 387.826 599.844C387.236 600.908 386.506 601.731 385.542 602.287C384.578 602.844 383.475 603.16 382.353 603.165C380.42 603.156 378.976 602.463 377.97 601.277C376.989 599.996 376.516 598.341 376.506 596.097C376.482 594.665 376.839 593.335 377.429 592.271C378.02 591.207 378.775 590.289 379.739 589.732C380.703 589.176 381.806 588.86 383.023 588.88C384.24 588.901 385.285 589.181 386.134 589.816ZM385.379 600.614C386.065 599.576 386.472 598.055 386.506 596.027C386.49 594.189 386.181 592.68 385.555 591.596C384.929 590.511 383.96 589.946 382.743 589.926C381.526 589.905 380.562 590.462 379.876 591.5C379.191 592.539 378.758 594.155 378.724 596.183C378.715 598.115 378.954 599.504 379.675 600.614C380.301 601.698 381.27 602.263 382.487 602.284C383.66 602.089 384.598 601.627 385.379 600.614Z" fill="black"/>
<path d="M370.627 593.708C370.991 591.971 371.417 590.762 372.051 589.913C372.369 589.489 372.661 589.16 373.022 588.951C373.384 588.742 373.815 588.654 374.22 588.661C374.816 588.719 375.222 588.725 375.507 588.802L375.505 590.329C375.22 590.253 374.719 590.22 374.124 590.163C373.933 590.112 373.718 590.156 373.477 590.295C373.236 590.434 373.09 590.599 372.944 590.763C371.846 592.201 371.247 595.198 370.956 599.703L370.859 601.205L373.001 601.575L372.962 602.482L362.138 601.822L362.177 600.916L363.945 600.779L364.713 589.169L362.857 588.875L362.896 587.969L368.593 588.375L368.554 589.281L366.595 589.368L365.827 600.977L369.642 601.185L369.79 599.493C370.065 597.326 370.289 595.349 370.627 593.708Z" fill="black"/>
<path d="M358.749 600.405L360.269 600.812L360.135 601.693L350.63 600.674L350.703 597.74L351.8 597.83L352.127 599.649L356.746 600.276L357.336 595.035L354.262 594.721L353.855 596.242L352.854 596.177L353.283 591.912L354.285 591.977L354.352 593.625L357.4 594.034L357.971 588.483L352.68 588.084L351.473 590.307L350.383 589.811L351.249 586.58L361.54 587.708L361.406 588.589L359.878 588.587L358.749 600.405Z" fill="black"/>
<path d="M343.313 598.713L346.481 599.053L347.69 595.303L348.855 595.513L347.842 600.436L336.297 598.667L336.81 593.711L337.976 593.922L338.028 597.908L341.24 598.464L342.94 586.798L340.349 586.206L340.483 585.325L347.529 586.398L347.395 587.279L344.987 587.143L343.313 598.713Z" fill="black"/>
<path d="M329.983 589.54L330.863 589.674C331.2 589.56 331.612 589.161 331.955 588.642C332.298 588.123 332.881 587.464 333.396 586.685C333.91 585.906 334.373 585.318 334.691 584.893C335.008 584.469 335.249 584.33 335.439 584.381L337.961 584.853L337.827 585.734L337.085 585.841C336.87 585.885 336.654 585.929 336.362 586.258C336.096 586.492 335.658 586.986 335.195 587.575C334.585 588.328 334.122 588.917 333.709 589.316C333.272 589.81 332.91 590.018 332.454 590.202C333.258 590.621 333.821 591.179 334.144 591.877C334.466 592.574 334.547 593.411 334.388 594.387C334.101 595.838 333.441 596.781 332.528 597.148C331.52 597.489 330.277 597.563 328.636 597.225C328.256 597.124 327.876 597.022 327.306 596.869C326.736 596.716 326.26 596.589 325.975 596.512L323.358 596.015L323.493 595.134L325.09 595.256L327.334 583.839L325.649 583.285L325.783 582.405L331.207 583.45L331.073 584.331L329.286 584.158L328.393 589.012L329.983 589.54ZM327.44 595.988C328.01 596.141 328.485 596.268 328.865 596.37C329.841 596.53 330.557 596.518 331.16 596.17C331.762 595.822 332.131 595.208 332.316 594.137C332.475 593.161 332.394 592.325 331.951 591.697C331.508 591.069 330.894 590.7 329.944 590.446C328.968 590.286 328.303 590.108 327.992 590.127L326.895 595.74L327.44 595.988Z" fill="black"/>
<path d="M316.859 593.662L320.046 594.312L321.54 590.638L322.775 590.969L321.286 595.765L309.996 593.045L310.915 588.097L312.055 588.403L311.702 592.382L314.838 593.222L317.513 581.717L314.973 580.934L315.202 580.079L322.191 581.747L321.961 582.603L319.509 582.251L316.859 593.662Z" fill="black"/>
<path d="M304.855 578.019C305.653 578.844 306.089 579.878 306.284 581.05C306.479 582.223 306.338 583.509 305.956 584.935C305.6 586.265 304.888 587.399 304.064 588.196C303.213 589.089 302.154 589.62 301.051 589.936C299.853 590.226 298.757 590.136 297.521 589.805C296.571 589.55 295.576 589.08 294.322 588.438L293.778 588.19L294.928 585.036L296.164 585.367L295.933 587.749C296.072 587.99 296.332 588.162 296.686 588.359C297.041 588.556 297.586 588.803 298.156 588.956C298.916 589.16 299.632 589.148 300.4 588.946C301.072 588.719 301.82 588.206 302.334 587.428C302.944 586.674 303.414 585.68 303.719 584.539C304.025 583.399 304.21 582.328 304.18 581.301C304.149 580.275 303.878 579.387 303.46 578.664C303.043 577.941 302.359 577.452 301.409 577.198C300.743 577.019 300.268 576.892 299.863 576.885C299.457 576.878 299.121 576.992 298.88 577.131L297.661 578.638L296.572 578.142L297.735 575.704C298.02 575.78 298.425 575.787 298.926 575.819C299.427 575.852 299.832 575.858 300.238 575.865C300.643 575.872 301.214 576.025 301.784 576.178C303.019 576.509 304.083 577.099 304.855 578.019Z" fill="black"/>
<path d="M286.416 586.014L286.74 585.184L288.571 585.573L291.656 576.723L289.48 578.381L282.269 582.866L282.141 583.341L283.68 584.059L283.356 584.889L278.516 583.185L278.841 582.355L280.291 582.642L284.056 571.631L282.612 570.939L282.937 570.109L287.872 571.839L287.547 572.669L285.906 572.331L282.796 581.276L284.852 579.688L292.278 575.159L292.457 574.493L290.823 573.75L291.147 572.92L296.082 574.65L295.757 575.48L294.211 575.167L290.446 586.178L291.796 586.845L291.471 587.675L286.416 586.014Z" fill="black"/>
<path d="M267.323 578.963L268.976 574.313L270.186 574.739L269.288 578.471L273.031 580.085L277.392 569.133L274.409 567.722L274.733 566.892L281.562 569.537L281.238 570.367L279.242 569.832L275.027 580.62L276.801 581.604L276.476 582.434L267.323 578.963Z" fill="black"/>
<path d="M264.784 576.653L265.987 577.485L265.663 578.315L261.02 576.256L261.344 575.426L262.865 575.833L264.898 571.285L258.881 568.654L256.847 573.202L258.145 574.059L257.821 574.889L253.273 572.856L253.597 572.026L255.023 572.408L259.713 561.747L258.389 560.985L258.713 560.155L263.261 562.189L262.937 563.019L261.442 562.516L259.186 567.514L265.204 570.145L267.46 565.147L266.041 564.36L266.365 563.53L271.103 565.614L270.779 566.444L269.379 565.967L264.784 576.653Z" fill="black"/>
<path d="M247.073 569.768L245.274 568.879L246.982 555.28L246.039 554.62L246.458 553.816L250.86 556.014L250.441 556.818L248.946 556.316L248.492 559.148L253.344 561.568L255.336 559.454L253.943 558.572L254.362 557.767L258.315 559.743L257.896 560.547L256.781 560.147L247.073 569.768ZM247.317 566.574L246.979 568.215L248.147 566.899L252.519 562.366L248.307 560.219L247.317 566.574Z" fill="black"/>
<path d="M239.763 555.994C240.835 554.652 241.806 553.69 242.675 553.108C243.157 552.83 243.493 552.716 243.924 552.628C244.33 552.635 244.71 552.736 245.16 552.959C245.704 553.207 246.034 553.499 246.293 553.67L245.721 555.045C245.461 554.873 245.107 554.676 244.493 554.308C244.328 554.162 244.138 554.111 243.922 554.155C243.707 554.199 243.491 554.243 243.25 554.382C241.709 555.192 239.83 557.642 237.544 561.613L236.782 562.937L238.574 564.232L238.155 565.036L228.769 559.771L229.188 558.967L230.848 559.615L236.532 549.425L234.974 548.396L235.393 547.592L240.454 550.374L240.035 551.178L238.305 550.409L232.646 560.505L235.934 562.302L236.747 560.788C237.636 558.99 238.69 557.337 239.763 555.994Z" fill="black"/>
<path d="M211.714 549.294L212.228 548.515L213.862 549.258L220.066 539.411L218.724 538.338L219.238 537.559L223.842 540.524L223.328 541.303L221.788 540.585L215.585 550.433L216.927 551.505L216.413 552.284L211.714 549.294ZM224.527 550.893C223.228 550.036 222.456 549.116 222.115 548.108C221.774 547.1 221.959 546.029 222.671 544.896C223.407 543.667 224.397 543.016 225.569 542.821C226.742 542.625 227.977 542.957 229.301 543.719C229.466 543.865 229.656 543.915 229.82 544.061C229.985 544.207 230.15 544.353 230.34 544.404C230.929 544.868 231.448 545.211 231.872 545.528L234.044 546.925L233.53 547.704L232.086 547.011L225.882 556.859L227.034 557.88L226.52 558.659L221.986 555.815L222.5 555.036L224.229 555.805L226.534 552.144L224.527 550.893ZM229.87 545.399C229.705 545.253 229.445 545.081 228.996 544.859C228.122 544.319 227.266 544.09 226.499 544.292C225.732 544.494 225.079 545.032 224.418 545.975C223.879 546.849 223.675 547.61 223.877 548.377C224.079 549.144 224.617 549.797 225.491 550.337L227.144 551.391L230.502 546.078C230.294 545.716 230.129 545.57 229.87 545.399Z" fill="black"/>
<path d="M205.276 543.29L206.308 544.382L205.793 545.161L201.715 542.133L202.23 541.354L203.648 542.141L206.676 538.064L201.395 534.204L198.367 538.282L199.399 539.373L198.885 540.152L194.902 537.15L195.416 536.371L196.766 537.038L203.653 527.679L202.596 526.683L203.11 525.904L207.188 528.932L206.674 529.711L205.35 528.949L202.151 533.286L207.432 537.146L210.631 532.808L209.409 531.666L209.923 530.887L214.096 533.94L213.582 534.719L212.258 533.957L205.276 543.29Z" fill="black"/>
<path d="M189.438 532.833L187.862 531.494L192.447 518.565L191.675 517.645L192.258 516.986L196.121 520.058L195.511 520.812L194.213 519.955L193.19 522.634L197.451 526.119L199.912 524.537L198.785 523.42L199.369 522.762L202.807 525.517L202.223 526.175L201.159 525.584L189.438 532.833ZM190.443 529.843L189.82 531.408L191.222 530.357L196.436 526.865L192.764 523.844L190.443 529.843Z" fill="black"/>
<path d="M178.335 521.812L179.645 523.385L179.061 524.043L175.396 520.617L179.157 512.661L180.339 510.533L178.334 511.931L170.743 516.314L167.147 513.008L167.731 512.35L169.428 513.619L176.246 504.14L175.17 502.833L175.754 502.175L179.653 505.868L179.069 506.526L177.702 505.549L172.649 512.241L170.453 515.116L172.863 513.725L181.849 508.697L182.742 509.547L178.897 518.193L177.29 521.531L179.98 519.095L186.28 513.449L185.014 512.091L185.598 511.433L189.193 514.739L188.61 515.398L187.337 514.445L178.335 521.812Z" fill="black"/>
<path d="M162.007 507.862L160.577 506.358L166.701 494.147L166.049 493.157L166.728 492.524L170.152 496.09L169.474 496.723L168.201 495.771L166.797 498.349L170.646 502.232L173.246 500.892L172.265 499.61L172.944 498.977L176.064 502.156L175.386 502.789L174.442 502.129L162.007 507.862ZM163.392 504.974L162.579 506.488L164.12 505.678L169.777 502.814L166.422 499.369L163.392 504.974Z" fill="black"/>
<path d="M155.8 499.476L156.591 500.707L155.912 501.34L154.273 499.474C153.943 499.182 153.64 498.796 153.31 498.504C152.817 498.066 152.348 497.533 151.949 497.12C150.779 495.788 150.178 494.609 150.148 493.582C150.117 492.555 150.657 491.681 151.628 490.719C152.401 490.111 153.15 489.599 153.987 489.518C154.849 489.341 155.73 489.475 156.559 489.8C157.389 490.124 158.143 490.733 158.845 491.533C159.079 491.799 159.314 492.065 159.548 492.332C159.782 492.598 159.921 492.839 160.016 492.865L163.093 490.124L161.505 488.069L162.184 487.436L166.26 491.991L165.581 492.624L164.429 491.603L155.8 499.476ZM158.141 492.26C157.508 491.582 156.703 491.162 155.918 491.054C155.132 490.945 154.098 491.381 153.128 492.343C152.328 493.046 151.934 493.755 151.946 494.471C151.958 495.187 152.35 496.005 153.053 496.805C153.287 497.071 153.616 497.363 153.945 497.655C154.11 497.801 154.274 497.947 154.344 498.068L159.286 493.688C159.052 493.421 158.679 492.914 158.141 492.26Z" fill="black"/>
<path d="M156.1 481.63C156.295 482.803 156.11 483.874 155.52 484.938C155.024 486.027 154.148 487.015 153.082 487.951C152.017 488.888 150.862 489.394 149.69 489.589C148.517 489.784 147.3 489.763 146.211 489.268C145.096 488.867 144.152 488.207 143.311 487.166C142.703 486.393 142.052 485.403 141.451 484.224L141.198 483.647L143.881 481.615L144.653 482.535L143.143 484.371C143.187 484.587 143.206 484.897 143.389 485.354C143.598 485.715 143.876 486.197 144.249 486.705C144.787 487.358 145.401 487.727 146.162 487.93C146.922 488.134 147.759 488.053 148.646 487.781C149.534 487.51 150.498 486.953 151.418 486.181C152.338 485.409 153.042 484.681 153.582 483.807C154.121 482.933 154.446 482.103 154.459 481.292C154.473 480.481 154.176 479.688 153.664 478.94C153.29 478.433 152.866 478.115 152.537 477.823C152.208 477.531 151.922 477.455 151.612 477.473L149.716 478.086L149.065 477.097L151.354 475.775C151.519 475.921 151.848 476.213 152.272 476.53C152.696 476.847 153.051 477.044 153.38 477.336C153.709 477.628 154.013 478.015 154.507 478.453C155.469 479.424 156 480.483 156.1 481.63Z" fill="black"/>
<path d="M125.626 463.075L126.374 462.562L127.52 463.99L135.34 458.752L132.596 458.729L124.162 457.895L123.775 458.199L124.489 459.715L123.741 460.227L120.925 455.908L121.674 455.395L122.706 456.487L132.385 450.015L131.645 448.594L132.393 448.082L135.303 452.427L134.555 452.939L133.479 451.632L125.538 456.94L128.092 456.911L136.717 457.796L137.319 457.448L136.51 455.907L137.258 455.395L140.168 459.74L139.42 460.252L138.413 459.066L128.735 465.538L129.379 466.933L128.631 467.445L125.626 463.075Z" fill="black"/>
<path d="M119.003 452.439C118.604 452.027 118.3 451.64 117.971 451.348C117.642 451.056 117.528 450.72 117.294 450.453C116.529 449.128 116.118 447.999 116.088 446.972C116.057 445.946 116.546 445.262 117.51 444.705C118.354 444.218 119.216 444.042 120.071 444.271C120.926 444.5 121.61 444.989 122.243 445.668C121.687 444.704 121.441 443.721 121.67 442.866C121.899 442.011 122.388 441.327 123.136 440.814C124.246 440.093 125.419 439.898 126.439 440.273C127.459 440.648 128.446 441.524 129.446 443.116C129.794 443.719 130.142 444.321 130.299 444.873C130.457 445.424 130.64 445.881 130.754 446.217C130.868 446.553 130.912 446.768 130.886 446.863L127.976 448.222L127.489 447.379L129.259 445.714C129.247 444.998 128.95 444.206 128.368 443.337C127.951 442.614 127.362 442.15 126.766 442.093C126.171 442.035 125.309 442.211 124.465 442.698C123.837 443.141 123.399 443.635 123.126 444.275C122.948 444.94 123.124 445.802 123.706 446.671L124.427 447.781L123.558 448.363L123.002 447.399C122.723 446.917 122.394 446.625 121.97 446.308C121.546 445.99 121.071 445.863 120.57 445.831C120.069 445.798 119.518 445.956 118.915 446.304C118.192 446.721 117.849 447.241 117.697 447.811C117.639 448.407 117.771 449.053 118.189 449.776C118.467 450.258 118.771 450.645 119.125 450.842C119.455 451.134 119.74 451.21 119.955 451.166L121.635 450.598L122.287 451.587L119.921 453.194C119.731 453.143 119.497 452.877 119.003 452.439Z" fill="black"/>
<path d="M111.656 438.044L112.18 439.508L111.362 439.9L110.136 437.636C109.927 437.275 109.649 436.793 109.275 436.285C108.902 435.778 108.693 435.416 108.554 435.175C107.745 433.634 107.455 432.436 107.494 431.53C107.628 430.649 108.117 429.965 109.081 429.409C109.899 429.017 110.666 428.815 111.426 429.019C112.212 429.127 112.896 429.616 113.434 430.27C112.903 429.21 112.657 428.228 112.886 427.373C113.115 426.517 113.604 425.833 114.542 425.372C115.627 424.746 116.774 424.646 117.863 425.141C118.978 425.542 120.01 426.633 121.028 428.536C121.237 428.897 121.42 429.354 121.629 429.715C122.021 430.533 122.274 431.11 122.438 431.256L123.595 433.4L122.777 433.792L121.892 432.536L111.656 438.044ZM114.654 432.939L114.192 432.001C113.775 431.278 113.306 430.745 112.641 430.566C111.976 430.388 111.329 430.521 110.511 430.912C109.788 431.33 109.255 431.798 109.103 432.368C108.95 432.939 109.152 433.706 109.613 434.644C109.822 435.006 110.1 435.488 110.309 435.849L110.518 436.211L115.141 433.783C115.141 433.783 114.932 433.421 114.654 432.939ZM120.305 428.953C119.679 427.869 119.046 427.19 118.311 426.891C117.576 426.592 116.835 426.699 115.991 427.186C115.148 427.673 114.615 428.141 114.532 428.832C114.449 429.523 114.555 430.265 115.112 431.228C115.738 432.313 116.06 433.01 116.269 433.372L121.159 430.71C121.02 430.469 120.767 429.892 120.305 428.953Z" fill="black"/>
<path d="M103.155 424.154L102.232 422.277L111.845 412.63L111.529 411.527L112.347 411.135L114.516 415.587L113.698 415.979L112.837 414.628L110.68 416.596L113.032 421.504L115.903 421.051L115.405 419.492L116.223 419.1L118.113 423.069L117.295 423.461L116.643 422.472L103.155 424.154ZM105.319 421.78L103.986 422.951L105.711 422.598L111.954 421.725L109.855 417.394L105.319 421.78Z" fill="black"/>
<path d="M110.532 408.408C110.347 409.479 109.851 410.568 109.121 411.391C108.391 412.214 107.256 413.03 105.981 413.606C104.707 414.181 103.439 414.35 102.248 414.235C101.056 414.119 99.9415 413.719 98.998 413.059C98.0545 412.398 97.3079 411.383 96.8022 410.229C96.4357 409.316 96.1202 408.213 95.8556 406.92L95.7233 406.273L98.8935 405.086L99.3991 406.24L97.3948 407.638C97.3438 407.828 97.337 408.234 97.4252 408.665C97.5134 409.096 97.6712 409.647 97.924 410.224C98.2464 410.922 98.6893 411.55 99.3986 411.944C100.108 412.337 100.868 412.541 101.8 412.485C102.732 412.429 103.809 412.209 104.963 411.703C105.997 411.267 106.961 410.71 107.76 410.008C108.56 409.305 109.048 408.622 109.278 407.766C109.602 406.936 109.52 406.1 109.128 405.282C108.876 404.705 108.597 404.223 108.363 403.956C108.129 403.69 107.895 403.423 107.515 403.321L105.487 403.287L105.171 402.184L107.783 401.56C107.922 401.801 108.131 402.162 108.435 402.549C108.738 402.936 109.068 403.228 109.276 403.59C109.485 403.951 109.763 404.433 110.016 405.01C110.522 406.164 110.717 407.337 110.532 408.408Z" fill="black"/>
<path d="M94.341 396.226C93.2701 396.041 92.2757 395.571 91.5222 394.962C90.7688 394.352 90.1868 393.483 89.8457 392.475C89.4351 391.347 89.3097 390.295 89.5898 389.249C89.8699 388.204 90.3146 387.304 91.114 386.602C91.9388 385.804 92.9028 385.248 94.1519 384.768C95.6165 384.243 96.8842 384.074 98.101 384.094C99.2923 384.21 100.407 384.61 101.256 385.245C102.104 385.88 102.781 386.774 103.217 387.808C103.628 388.937 103.728 390.084 103.543 391.155C103.358 392.225 102.818 393.099 101.993 393.897C101.168 394.694 100.179 395.346 98.9299 395.826L100.004 398.66L105.095 396.765L104.717 395.136L105.605 394.865L107.361 399.715L106.473 399.986L105.733 398.566L94.8784 402.584L95.1871 404.092L94.2995 404.364L92.518 399.608L93.4056 399.337L94.1454 400.757L98.9007 398.976L97.8268 396.142C96.6286 396.432 95.3863 396.506 94.341 396.226ZM93.2024 394.393C94.4378 394.724 96.0161 394.536 97.9627 393.734C99.6683 393.07 100.899 392.28 101.68 391.266C102.46 390.253 102.645 389.183 102.235 388.054C101.824 386.925 100.976 386.291 99.8352 385.985C98.6948 385.679 97.0911 385.963 95.1699 386.67C93.4643 387.334 92.2339 388.124 91.4786 389.042C90.6979 390.055 90.5383 391.031 90.9489 392.16C91.2389 393.358 92.062 394.088 93.2024 394.393Z" fill="black"/>
<path d="M92.5473 375.171C93.0361 374.487 93.6709 373.639 94.5467 372.651C95.1306 371.993 95.5684 371.499 95.8858 371.075C96.1778 370.745 96.2541 370.46 96.3051 370.27L96.2932 369.554L97.1808 369.283L97.907 371.514C98.0461 371.755 97.8238 372.205 97.5064 372.629C97.1635 373.148 96.5797 373.807 95.7548 374.604C94.8791 375.592 94.1747 376.32 93.7114 376.909C93.248 377.498 93.1207 377.973 93.2344 378.309L93.5499 379.412L98.6599 377.827L98.4021 376.129L99.2897 375.857L100.83 380.752L99.9427 381.023L99.2979 379.628L88.1903 383.069L88.404 384.552L87.5164 384.823L86.0454 380.05L86.933 379.778L87.5778 381.173L92.6878 379.588L92.189 378.029L85.8982 376.038L86.1814 377.641L85.2938 377.913L83.9366 373.475L84.8241 373.203L85.4944 374.503L91.9244 376.736C91.8107 376.4 92.084 375.76 92.5473 375.171Z" fill="black"/>
<path d="M95.5366 366.295C95.1614 367.315 94.5267 368.164 93.6322 368.841C92.7378 369.518 91.5583 370.118 90.2397 370.478C88.826 370.812 87.5837 370.887 86.4179 370.676C85.252 370.466 84.283 369.901 83.46 369.171C82.637 368.441 82.0804 367.477 81.7903 366.279C81.2729 364.409 81.4902 362.837 82.4679 361.469C83.42 360.197 84.8915 359.267 86.9772 358.705C88.3909 358.371 89.7282 358.322 90.8941 358.533C92.0599 358.743 93.1239 359.334 93.947 360.064C94.77 360.793 95.3266 361.757 95.6167 362.955C95.9067 364.154 95.9117 365.275 95.5366 366.295ZM84.8805 368.431C86.0905 368.857 87.6433 368.764 89.6086 368.272C91.4533 367.85 92.7788 367.084 93.6291 366.192C94.4794 365.299 94.785 364.159 94.4694 363.056C94.1793 361.857 93.3563 361.128 92.1463 360.701C90.9364 360.275 89.2885 360.343 87.3232 360.835C85.4785 361.258 84.153 362.023 83.3027 362.915C82.4524 363.808 82.1723 364.853 82.4624 366.051C82.968 367.206 83.7656 368.03 84.8805 368.431Z" fill="black"/>
<path d="M80.6864 356.714L80.7796 358.267L79.9175 358.443L79.3627 355.952C79.2745 355.521 79.1168 354.969 78.959 354.418C78.8012 353.866 78.6179 353.41 78.5993 353.099C78.2465 351.375 78.2669 350.158 78.5911 349.328C78.9154 348.498 79.6638 347.986 80.6464 347.74C81.5086 347.564 82.2943 347.672 83.0291 347.971C83.7384 348.365 84.3018 348.923 84.6938 349.741C84.4037 348.543 84.4428 347.637 84.862 346.832C85.2813 346.028 86.0297 345.516 86.9869 345.365C88.1851 345.075 89.3509 345.285 90.269 346.04C91.2125 346.701 91.9523 348.121 92.3492 350.061C92.4374 350.492 92.5257 350.923 92.5188 351.329C92.6698 352.286 92.8276 352.837 92.8717 353.053L93.4519 355.449L92.5897 355.626L92.0655 354.161L80.6864 356.714ZM84.9311 352.657L84.6851 351.674C84.5087 350.812 84.1608 350.21 83.5465 349.841C83.0273 349.498 82.2416 349.39 81.354 349.661C80.4918 349.838 79.8893 350.185 79.6415 350.73C79.3937 351.275 79.285 352.061 79.5055 353.138C79.5937 353.569 79.682 354 79.8652 354.457L79.9789 354.793L85.0566 353.709C85.1075 353.519 84.9939 353.183 84.9311 352.657ZM91.3666 350.307C91.0765 349.109 90.6846 348.291 90.0007 347.802C89.4118 347.339 88.6261 347.23 87.6435 347.476C86.6863 347.627 86.0584 348.07 85.8105 348.614C85.4677 349.134 85.4286 350.04 85.6491 351.118C85.9392 352.316 86.1156 353.178 86.2293 353.514L91.6431 352.316C91.7194 352.031 91.5871 351.385 91.3666 350.307Z" fill="black"/>
<path d="M74.2247 327.991L75.1818 327.84L75.6806 329.399L87.1665 327.588L87.1243 325.845L88.0814 325.694L88.9244 330.911L87.9673 331.062L87.5635 329.528L76.0776 331.339L77.0274 337.297L88.6084 335.511L88.5661 333.769L89.5233 333.618L90.2712 338.809L89.3141 338.96L88.8848 337.521L77.3989 339.332L77.3716 340.955L76.4145 341.106L74.2247 327.991Z" fill="black"/>
<path d="M86.8565 321.903C86.4118 322.802 85.587 323.6 84.623 324.156C83.659 324.713 82.4354 325.098 80.9776 325.216C79.5198 325.335 78.2335 325.194 77.1185 324.794C76.0036 324.393 75.0601 323.733 74.383 322.838C73.706 321.944 73.2699 320.91 73.1699 319.763C72.963 317.874 73.3959 316.259 74.5126 315.132C75.6294 314.005 77.24 313.316 79.4394 313.091C80.8972 312.972 82.1836 313.113 83.2985 313.514C84.4135 313.914 85.357 314.575 86.1291 315.494C86.8061 316.389 87.2422 317.422 87.3422 318.57C87.4863 319.932 87.3012 321.003 86.8565 321.903ZM76.0122 322.46C77.1713 323.076 78.6732 323.173 80.7521 323.017C82.641 322.81 83.9851 322.355 85.0254 321.514C86.0403 320.767 86.5105 319.773 86.3409 318.505C86.2409 317.358 85.5638 316.463 84.4048 315.847C83.2458 315.231 81.6488 315.109 79.6649 315.29C77.7761 315.497 76.3369 315.926 75.3916 316.793C74.3767 317.54 74.0015 318.56 74.1711 319.828C74.2457 321.07 74.9227 321.964 76.0122 322.46Z" fill="black"/>
<path d="M80.9485 307.078C82.6405 307.226 83.9964 307.488 84.8958 307.932C85.3455 308.155 85.6747 308.447 85.9089 308.713C86.1176 309.075 86.2313 309.411 86.3195 309.842C86.3568 310.463 86.3499 310.868 86.2735 311.153L84.7903 311.367C84.7716 311.057 84.7785 310.651 84.7667 309.935C84.7225 309.719 84.6784 309.504 84.5138 309.358C84.3492 309.212 84.1846 309.066 83.925 308.894C82.4113 308.081 79.3379 307.767 74.7745 308.072L73.3167 308.191L73.2571 310.314L72.3254 310.37L71.6475 299.595L72.5792 299.539L72.932 301.264L84.5434 300.504L84.6217 298.692L85.5534 298.636L85.9585 304.347L85.0268 304.402L84.7249 302.488L73.1389 303.152L73.3371 306.974L74.985 306.906C77.3236 306.922 79.2565 306.931 80.9485 307.078Z" fill="black"/>
<path d="M72.7798 296.13L72.5624 297.701L71.6307 297.757L71.433 288.231L74.3741 287.899L74.4045 288.926L72.6293 289.469L72.5984 294.146L77.8271 294.019L77.7357 290.939L76.1642 290.721L76.1337 289.695L80.4307 289.624L80.4612 290.651L78.8574 290.934L78.8283 294.084L84.3676 293.938L84.0507 288.658L81.6562 287.711L81.9618 286.571L85.1997 287.031L85.3838 297.368L84.4521 297.424L84.2639 295.846L72.7798 296.13Z" fill="black"/>
<path d="M72.5639 280.59L72.6298 283.765L76.5075 284.498L76.4871 285.715L71.5062 285.297L71.7736 273.655L76.7868 273.573L76.7663 274.79L72.8426 275.368L72.693 278.587L84.4554 278.785L84.6678 276.092L85.574 276.131L85.4071 283.216L84.5008 283.177L84.3517 280.693L72.5639 280.59Z" fill="black"/>
<path d="M79.9898 266.18L79.9507 267.087C80.1594 267.448 80.4886 267.74 81.1029 268.108C81.6222 268.451 82.3315 268.845 83.2309 269.29C84.1303 269.734 84.7447 270.103 85.1944 270.325C85.6441 270.547 85.8782 270.814 85.8273 271.004L85.6659 273.507L84.7596 273.468L84.6528 272.726C84.6087 272.511 84.4441 272.365 84.2099 272.098C83.8552 271.902 83.431 271.584 82.7471 271.095C81.9427 270.676 81.3539 270.213 80.8346 269.87C80.3154 269.527 80.0116 269.14 79.8029 268.779C79.4787 269.608 79.0153 270.197 78.2669 270.71C77.5439 271.127 76.7768 271.329 75.7755 271.264C74.2736 271.168 73.2792 270.697 72.7227 269.733C72.1661 268.769 71.9965 267.502 72.1188 265.905C72.1256 265.499 72.2275 265.119 72.2852 264.523C72.343 263.928 72.4703 263.453 72.4517 263.142L72.6641 260.449L73.5703 260.488L73.6635 262.041L85.2731 262.809L85.5413 261.047L86.4476 261.086L86.0924 266.593L85.1862 266.554L85.1694 264.716L80.1631 264.393L79.9898 266.18ZM73.2169 264.467C73.0641 265.038 73.0319 265.538 73.025 265.944C72.9605 266.945 73.0673 267.687 73.5357 268.22C74.004 268.753 74.6438 269.026 75.7401 269.116C76.7413 269.181 77.5085 268.979 78.1364 268.536C78.7644 268.093 78.9681 267.333 79.1277 266.357C79.1922 265.356 79.25 264.76 79.1618 264.329L73.4648 263.923L73.2169 264.467Z" fill="black"/>
<path d="M74.1616 253.72L73.917 256.914L77.7183 257.933L77.6028 259.124L72.6288 258.3L73.8975 246.723L78.9038 247.046L78.7883 248.237L74.8715 248.41L74.4113 251.648L86.0836 252.942L86.5811 250.325L87.4618 250.46L86.6738 257.582L85.793 257.448L85.834 255.014L74.1616 253.72Z" fill="black"/>
<path d="M88.2858 239.782C87.556 240.605 86.5666 241.256 85.4634 241.572C84.3603 241.887 83.023 241.936 81.6671 241.675C80.3112 241.413 79.1012 240.987 78.1831 240.232C77.2651 239.477 76.493 238.557 76.0824 237.428C75.6718 236.3 75.5718 235.153 75.8078 233.892C75.9674 232.916 76.273 231.775 76.7941 230.591L77.0419 230.046L80.324 230.722L80.088 231.983L77.6289 232.037C77.483 232.202 77.3115 232.461 77.0892 232.911C76.8923 233.266 76.7395 233.836 76.6817 234.431C76.5731 235.217 76.6799 235.959 77.0023 236.656C77.3247 237.354 77.8881 237.912 78.762 238.452C79.5409 238.966 80.5863 239.246 81.8472 239.482C83.0131 239.693 84.0398 239.662 85.092 239.537C86.0491 239.386 86.9622 239.019 87.6156 238.482C88.269 237.944 88.6628 237.234 88.8224 236.258C88.9056 235.568 88.9379 235.067 88.9193 234.757C88.9006 234.446 88.7869 234.11 88.5782 233.749L86.9254 232.694L87.231 231.554L89.746 232.432C89.6696 232.717 89.7832 233.053 89.846 233.579C89.9342 234.01 89.9019 234.511 89.9901 234.942C90.0783 235.373 89.951 235.848 89.8678 236.539C89.5367 237.774 89.0411 238.864 88.2858 239.782Z" fill="black"/>
<path d="M78.0522 222.474L78.9329 222.608L78.7597 224.395L87.9152 226.339L85.9909 224.397L80.6372 217.768L80.162 217.641L79.6341 219.231L78.7533 219.097L79.7924 214.079L80.6731 214.213L80.5763 215.715L91.943 218.149L92.4455 216.654L93.3008 216.883L92.2363 221.997L91.381 221.767L91.5288 220.076L82.1832 218.081L84.038 219.902L89.4612 226.651L90.1264 226.83L90.6798 225.145L91.5606 225.279L90.4961 230.392L89.6153 230.258L89.7377 228.661L78.3709 226.226L77.8939 227.626L77.0131 227.492L78.0522 222.474Z" fill="black"/>
<path d="M82.6327 202.719L87.4353 203.802L87.1042 205.037L83.3402 204.64L82.1757 208.606L93.6306 211.471L94.661 208.386L95.5163 208.615L93.727 215.673L92.8717 215.444L93.2164 213.398L81.9515 210.583L81.2521 212.433L80.3968 212.203L82.6327 202.719Z" fill="black"/>
<path d="M84.6132 199.888L83.9462 201.237L83.0908 201.008L84.6051 196.117L85.4604 196.347L85.243 197.918L90.0388 199.407L91.935 193.09L87.1392 191.602L86.4721 192.951L85.6168 192.722L87.1055 187.926L87.9609 188.155L87.769 189.632L98.8811 193.016L99.4531 191.642L100.308 191.871L98.8197 196.667L97.9644 196.438L98.2768 194.892L93.1008 193.301L91.2047 199.617L96.3806 201.208L96.9781 199.738L97.8334 199.968L96.3192 204.858L95.4639 204.629L95.7508 203.178L84.6132 199.888Z" fill="black"/>
<path d="M89.1478 181.445L89.8726 179.5L103.524 179.491L104.114 178.427L104.944 178.751L103.291 183.401L102.461 183.077L102.774 181.531L99.8393 181.458L98.0586 186.583L100.344 188.316L101.037 186.872L101.867 187.196L100.436 191.396L99.606 191.072L99.8165 189.906L89.1478 181.445ZM92.418 181.405L90.726 181.257L92.1888 182.26L97.1847 186.043L98.7871 181.583L92.418 181.405Z" fill="black"/>
<path d="M102.043 172.474C103.531 173.382 104.639 174.188 105.247 174.962C105.551 175.349 105.734 175.805 105.847 176.141C105.936 176.572 105.834 176.953 105.732 177.333C105.484 177.877 105.287 178.232 105.116 178.492L103.716 178.015C103.887 177.755 104.015 177.28 104.262 176.735C104.313 176.545 104.39 176.26 104.32 176.139C104.276 175.924 104.137 175.683 103.998 175.442C102.947 174.04 100.326 172.421 96.0813 170.774L94.7067 170.202L93.6968 172.071L92.867 171.746L96.878 161.719L97.7078 162.043L97.2495 163.754L108.012 168.063L108.85 166.455L109.68 166.779L107.538 172.113L106.708 171.788L107.218 169.888L96.4551 165.578L95.0123 169.062L96.5769 169.685C98.7304 170.771 100.555 171.566 102.043 172.474Z" fill="black"/>
<path d="M105.053 156.677C105.72 155.328 106.475 154.41 107.509 153.974C108.543 153.538 109.544 153.603 110.728 154.124C111.982 154.765 112.875 155.616 113.165 156.814C113.481 157.917 113.34 159.203 112.673 160.553C112.622 160.743 112.476 160.907 112.425 161.097C112.279 161.262 112.228 161.452 112.056 161.712C111.688 162.326 111.44 162.871 111.192 163.415L110.176 165.689L109.371 165.27L109.874 163.775L99.2897 158.8L98.4325 160.098L97.6282 159.679L99.8331 154.871L100.637 155.291L100.059 157.071L103.941 158.926L105.053 156.677ZM105.056 143.742L105.86 144.162L105.307 145.847L115.796 150.796L116.704 149.308L117.508 149.727L115.158 154.7L114.353 154.28L114.907 152.595L104.417 147.646L103.509 149.134L102.705 148.715L105.056 143.742ZM111.227 161.387C111.373 161.223 111.474 160.843 111.671 160.488C112.116 159.589 112.155 158.682 111.858 157.89C111.561 157.097 110.903 156.513 109.908 156.043C109.009 155.598 108.103 155.559 107.431 155.787C106.733 156.109 106.175 156.672 105.73 157.572L104.961 159.301L110.668 161.951C110.909 161.812 111.081 161.552 111.227 161.387Z" fill="black"/>
<path d="M110.116 136.644L109.189 137.822L108.384 137.402L110.893 132.982L111.697 133.401L111.1 134.871L115.546 137.284L118.722 131.515L114.276 129.101L113.349 130.279L112.545 129.859L114.933 125.508L115.737 125.928L115.26 127.328L125.451 133.012L126.377 131.834L127.182 132.253L124.768 136.7L123.964 136.28L124.561 134.811L119.76 132.2L116.585 137.97L121.385 140.581L122.363 139.213L123.167 139.632L120.633 144.148L119.829 143.728L120.401 142.354L110.116 136.644Z" fill="black"/>
<path d="M118.54 119.65L119.619 117.902L132.981 120.872L133.737 119.954L134.516 120.468L131.868 124.648L131.089 124.133L131.781 122.689L128.93 121.925L126.06 126.555L127.908 128.781L128.955 127.534L129.734 128.048L127.404 131.804L126.625 131.289L127.121 130.2L118.54 119.65ZM121.632 120.275L120.016 119.842L121.212 121.079L125.332 125.85L127.834 121.835L121.632 120.275Z" fill="black"/>
<path d="M128.105 107.139L126.766 108.715L125.987 108.201L128.895 104.193L137.225 106.934L139.525 107.856L137.886 105.991L132.539 98.9557L135.446 94.9475L136.225 95.4618L135.241 97.2351L145.577 102.755L146.719 101.533L147.498 102.047L144.273 106.48L143.495 105.966L144.308 104.452L136.98 100.248L133.788 98.4756L135.541 100.677L141.678 108.942L140.993 109.981L131.946 107.251L128.386 106.093L131.114 108.454L137.49 113.931L138.683 112.519L139.462 113.034L136.675 116.972L135.896 116.458L136.683 115.039L128.105 107.139Z" fill="black"/>
<path d="M139.813 89.2934L141.057 87.6915L154.012 92.1814L154.837 91.3838L155.59 91.9931L152.518 95.8554L151.765 95.2461L152.622 93.9479L149.943 92.9243L146.553 97.2108L148.16 99.5767L149.277 98.4499L150.03 99.0593L147.276 102.497L146.522 101.888L147.113 100.824L139.813 89.2934ZM142.829 90.2033L141.264 89.5804L142.314 90.9822L145.806 96.1959L148.733 92.4983L142.829 90.2033Z" fill="black"/>
<path d="M147.357 82.046L146.196 82.9572L145.443 82.3479L147.074 80.4422C147.366 80.113 147.658 79.7838 147.855 79.4291C148.293 78.9353 148.636 78.416 149.073 77.9222C150.241 76.6054 151.376 75.7892 152.334 75.6383C153.291 75.4873 154.311 75.8624 155.298 76.7382C156.052 77.3475 156.564 78.096 156.836 78.9836C157.107 79.8712 157.093 80.6823 156.864 81.5376C156.635 82.393 156.19 83.2924 155.486 84.0204C155.22 84.2545 155.023 84.6092 154.756 84.8434C154.49 85.0775 154.344 85.2421 154.318 85.3372L157.471 88.0154L159.267 86.2557L159.925 86.8396L155.933 91.4739L155.275 90.8901L156.132 89.5919L147.357 82.046ZM154.828 83.4365C155.437 82.6831 155.761 81.8532 155.68 81.0166C155.598 80.1799 155.111 79.3364 154.054 78.3401C153.231 77.6103 152.496 77.3116 151.755 77.4184C151.013 77.5253 150.385 77.9682 149.535 78.8607C149.243 79.19 149.046 79.5446 148.754 79.8738C148.583 80.1335 148.462 80.203 148.437 80.2981L153.495 84.6074C153.831 84.4937 154.244 84.0949 154.828 83.4365Z" fill="black"/>
<path d="M165.194 80.1025C164.091 80.418 162.994 80.328 161.854 80.0224C160.739 79.6218 159.675 79.0311 158.618 78.0349C157.656 77.0641 156.909 76.0492 156.524 74.8255C156.113 73.6969 156.134 72.4802 156.344 71.3143C156.65 70.1739 157.145 69.0844 158.091 68.2173C158.795 67.4893 159.595 66.7868 160.825 65.9961L161.332 65.6227L163.63 68.0718L162.78 68.9644L160.677 67.688C160.462 67.7321 160.126 67.8458 159.764 68.0545C159.403 68.2632 158.99 68.662 158.578 69.0608C158.019 69.6242 157.721 70.3589 157.637 71.0496C157.529 71.8354 157.731 72.6025 158.097 73.5155C158.489 74.3336 159.166 75.228 160.059 76.0783C160.856 76.9031 161.825 77.4683 162.725 77.913C163.624 78.3578 164.505 78.4919 165.342 78.4105C166.178 78.3291 166.901 77.9117 167.58 77.2787C168.018 76.7849 168.335 76.3607 168.507 76.1011C168.678 75.8414 168.78 75.4613 168.761 75.1507L167.933 73.2992L168.853 72.5271L170.511 74.7028C170.365 74.8674 170.168 75.2221 169.92 75.7669C169.698 76.2166 169.501 76.5712 169.304 76.9259C169.107 77.2806 168.79 77.7048 168.352 78.1986C167.286 79.1353 166.202 79.7614 165.194 80.1025Z" fill="black"/>
<path d="M176.263 50.5762L176.896 51.255L175.702 52.6669L181.981 59.6458L181.598 56.8948L181.215 48.44L180.911 48.053L179.535 49.0084L178.902 48.3295L182.778 44.8865L183.411 45.5653L182.484 46.743L190.238 55.4412L191.494 54.5554L192.126 55.2343L188.25 58.6773L187.617 57.9984L188.759 56.7766L182.411 49.6772L182.845 52.2382L183.177 60.8831L183.646 61.416L185.048 60.3656L185.681 61.0445L181.779 64.5825L181.146 63.9037L182.167 62.7515L174.414 54.0533L173.184 54.844L172.551 54.1651L176.263 50.5762Z" fill="black"/>
<path d="M185.944 42.5771C186.261 42.1529 186.578 41.7286 186.87 41.3994C187.162 41.0702 187.429 40.836 187.695 40.6019C188.881 39.5956 190.036 39.09 190.993 38.939C191.95 38.7881 192.754 39.2073 193.457 40.0067C194.064 40.7806 194.361 41.5732 194.227 42.4539C194.093 43.3347 193.794 44.0695 193.185 44.823C194.079 44.1459 194.992 43.7794 195.873 43.9136C196.779 43.9527 197.489 44.3465 198.096 45.1204C198.938 46.1607 199.253 47.2639 199.068 48.3347C198.883 49.4055 198.077 50.5136 196.65 51.659C196.117 52.1274 195.514 52.4752 195.032 52.7535C194.55 53.0318 194.094 53.215 193.758 53.3287C193.422 53.4424 193.206 53.4865 193.181 53.5815L191.365 50.8542L192.139 50.2467L194.07 51.7827C194.717 51.6504 195.535 51.2584 196.334 50.5559C196.987 50.018 197.356 49.4037 197.319 48.7826C197.307 48.0664 197.079 47.3943 196.377 46.595C195.934 45.967 195.32 45.5987 194.629 45.5155C193.938 45.4323 193.146 45.7292 192.251 46.4062L191.211 47.2479L190.508 46.4485L191.308 45.746C191.695 45.4423 192.012 45.018 192.234 44.5683C192.457 44.1186 192.584 43.6434 192.521 43.1173C192.459 42.5913 192.18 42.1093 191.807 41.6018C191.269 40.9484 190.75 40.6055 190.129 40.6428C189.508 40.6801 188.931 40.9329 188.303 41.3758C187.89 41.7746 187.598 42.1038 187.306 42.433C187.014 42.7622 187.033 43.0727 187.077 43.2883L187.887 44.8293L186.967 45.6014L184.998 43.4442C185.239 43.3051 185.531 42.9759 185.944 42.5771Z" fill="black"/>
<path d="M199.131 33.2766L197.71 34.0164L197.198 33.2679L199.227 31.7747C199.589 31.566 200.001 31.1672 200.509 30.7939C200.921 30.3951 201.308 30.0914 201.549 29.9522C202.951 28.9019 204.105 28.3962 205.011 28.4354C205.918 28.4745 206.722 28.8937 207.329 29.6676C207.842 30.4161 208.044 31.1832 208.03 31.9944C208.016 32.8056 207.623 33.5149 207.039 34.1733C207.959 33.4012 208.941 33.1553 209.848 33.1944C210.754 33.2335 211.533 33.7477 212.045 34.4962C212.792 35.5111 213.012 36.5888 212.802 37.7546C212.591 38.9205 211.569 40.0727 209.901 41.3573C209.514 41.661 209.153 41.8697 208.791 42.0784C207.948 42.5654 207.535 42.9642 207.32 43.0083L205.29 44.5015L204.777 43.7531L205.869 42.7214L199.131 33.2766ZM204.534 35.5392L205.403 34.9572C206.151 34.4448 206.52 33.8305 206.577 33.2348C206.635 32.6391 206.433 31.8721 205.921 31.1236C205.408 30.3752 204.889 30.0323 204.293 29.9745C203.698 29.9168 202.905 30.2137 202.131 30.8212C201.744 31.1249 201.383 31.3336 201.091 31.6629L200.824 31.897L203.88 36.0772C203.785 36.0517 204.147 35.843 204.534 35.5392ZM209.319 40.4883C210.334 39.7417 210.943 38.9882 211.052 38.2025C211.161 37.4168 210.959 36.6497 210.446 35.9012C209.839 35.1273 209.25 34.664 208.654 34.6062C207.964 34.523 207.266 34.8454 206.372 35.5224C205.357 36.2691 204.729 36.7119 204.462 36.9461L207.727 41.4878C207.943 41.4436 208.45 41.0703 209.319 40.4883Z" fill="black"/>
<path d="M211.691 22.8915L213.429 21.7275L224.365 29.9541L225.424 29.423L225.936 30.1715L221.832 32.9424L221.32 32.194L222.506 31.1877L220.246 29.3598L215.66 32.409L216.449 35.1668L217.869 34.427L218.382 35.1755L214.665 37.6427L214.153 36.8942L214.978 36.0967L211.691 22.8915ZM214.357 24.7263L213.015 23.6536L213.583 25.3338L215.319 31.4009L219.277 28.7946L214.357 24.7263Z" fill="black"/>
<path d="M228.265 27.9434C227.143 27.9484 226.123 27.5733 225.059 26.9826C224.115 26.3224 223.248 25.377 222.458 24.1466C221.762 22.9416 221.377 21.718 221.277 20.5707C221.177 19.4235 221.508 18.1881 222.073 17.2191C222.664 16.1551 223.489 15.3575 224.598 14.6364C225.442 14.1494 226.475 13.7133 227.82 13.2586L228.397 13.0058L229.946 15.9674L228.861 16.5935L227.197 14.8233C227.007 14.7724 226.671 14.886 226.239 14.9743C225.808 15.0625 225.326 15.3407 224.844 15.619C224.121 16.0364 223.658 16.6253 223.385 17.2651C223.086 17.9999 222.977 18.7856 223.128 19.7428C223.279 20.6999 223.715 21.7335 224.367 22.7229C225.019 23.7123 225.696 24.6068 226.449 25.2161C227.202 25.8254 228.007 26.2446 228.862 26.4738C229.717 26.703 230.485 26.5011 231.328 26.0141C231.931 25.6663 232.318 25.3625 232.489 25.1029C232.755 24.8687 232.952 24.514 233.029 24.2289L232.752 22.2196L233.811 21.6885L234.772 24.1867C234.531 24.3258 234.264 24.56 233.947 24.9842C233.655 25.3134 233.363 25.6426 232.976 25.9464C232.684 26.2756 232.202 26.5539 231.72 26.8321C230.585 27.6483 229.386 27.9384 228.265 27.9434Z" fill="black"/>
<path d="M238.014 10.1844C238.104 9.08813 238.384 8.04276 238.924 7.16882C239.464 6.29487 240.143 5.66192 241.107 5.10537C242.191 4.47924 243.269 4.25871 244.27 4.32328C245.271 4.38786 246.291 4.76301 247.114 5.49282C247.937 6.22263 248.709 7.14249 249.43 8.25244C250.196 9.57792 250.555 10.8966 250.63 12.1388C250.704 13.3811 250.519 14.4519 249.954 15.4209C249.389 16.3899 248.685 17.1179 247.721 17.6744C246.636 18.3006 245.559 18.5211 244.462 18.431C243.461 18.3665 242.441 17.9913 241.593 17.3565C240.744 16.7218 239.877 15.7764 239.276 14.5969L236.651 16.0324L239.244 20.8014L240.734 20.1821L241.126 21.0001L236.598 23.4537L236.206 22.6357L237.462 21.7499L231.954 11.5144L230.489 12.0387L230.002 11.1952L234.41 8.81118L234.897 9.65468L233.641 10.5404L236.025 14.9479L238.745 13.5379C238.214 12.4789 237.994 11.4012 238.014 10.1844ZM239.777 8.92536C239.636 10.2117 240.04 11.7459 241.084 13.5534C241.988 15.1198 242.899 16.2807 244.058 16.8969C245.217 17.513 246.219 17.5776 247.398 16.9769C248.457 16.4458 249.022 15.4768 249.043 14.26C249.063 13.0432 248.66 11.5091 247.711 9.72706C246.807 8.16058 245.896 6.99971 244.831 6.40904C243.767 5.81837 242.671 5.72833 241.612 6.25942C240.553 6.79051 239.918 7.639 239.777 8.92536Z" fill="black"/>
<path d="M258.737 5.44985C259.447 5.84363 260.321 6.38337 261.48 6.99951C262.259 7.51379 262.778 7.85665 263.228 8.079C263.677 8.30136 263.867 8.35228 264.083 8.30818L264.825 8.20133L265.216 9.01935L263.124 9.98649C262.883 10.1256 262.503 10.0238 261.958 9.77596C261.413 9.52815 260.729 9.03933 259.786 8.37909C258.773 7.59835 257.899 7.05861 257.285 6.69029C256.67 6.32197 256.17 6.28968 255.834 6.40335L254.775 6.93444L257.057 11.7221L258.616 11.2233L259.008 12.0413L254.341 14.2539L253.949 13.4359L255.275 12.6706L250.344 2.18227L248.905 2.61151L248.513 1.79349L253.059 -0.349516L253.451 0.468496L252.1 1.3288L254.357 6.21147L255.778 5.47166L256.914 -1.04838L255.354 -0.549581L254.962 -1.3676L259.147 -3.3019L259.539 -2.48388L258.309 -1.69314L256.932 4.96603C257.337 4.97285 258.003 5.1511 258.737 5.44985Z" fill="black"/>
<path d="M267.944 7.20367C266.873 7.01859 265.999 6.47885 265.201 5.65401C264.404 4.82917 263.657 3.81426 263.107 2.44468C262.558 1.07509 262.268 -0.123057 262.383 -1.31439C262.499 -2.50572 262.779 -3.55111 263.439 -4.49462C264.099 -5.43813 264.994 -6.11518 266.027 -6.55124C267.853 -7.28422 269.381 -7.28239 270.825 -6.58986C272.269 -5.89733 273.414 -4.47 274.217 -2.52339C274.767 -1.15381 275.031 0.139375 274.916 1.33071C274.8 2.52204 274.495 3.66244 273.834 4.60595C273.174 5.54947 272.28 6.22653 271.246 6.66259C270.067 7.26325 269.015 7.38874 267.944 7.20367ZM264.343 -2.92814C264.107 -1.66724 264.416 -0.158523 265.124 1.76262C265.882 3.49369 266.768 4.74961 267.806 5.43532C268.82 6.21606 269.916 6.30609 271.07 5.80046C272.198 5.38987 272.859 4.44635 273.095 3.18545C273.331 1.92454 273.047 0.320802 272.219 -1.53077C271.461 -3.26185 270.575 -4.51776 269.537 -5.20347C268.498 -5.88917 267.427 -6.07425 266.273 -5.56862C265.214 -5.03753 264.579 -4.18904 264.343 -2.92814Z" fill="black"/>
<path d="M275.302 -8.85355L273.793 -8.54481L273.522 -9.43241L275.9 -10.3232C276.331 -10.4114 276.813 -10.6897 277.39 -10.9425C277.967 -11.1953 278.328 -11.404 278.639 -11.4226C280.224 -12.0165 281.492 -12.1861 282.347 -11.9569C283.202 -11.7277 283.861 -11.1439 284.202 -10.1358C284.499 -9.34321 284.58 -8.50655 284.281 -7.77175C283.982 -7.03694 283.494 -6.35307 282.771 -5.93565C283.899 -6.34624 284.831 -6.40216 285.686 -6.17299C286.541 -5.94381 287.174 -5.26493 287.515 -4.25684C287.926 -3.12825 287.906 -1.91146 287.34 -0.942481C286.75 0.121531 285.494 1.0073 283.573 1.71481C283.116 1.89806 282.78 2.01173 282.349 2.09994C281.461 2.37139 280.884 2.6242 280.669 2.66831L278.291 3.55907L277.994 2.76651L279.415 2.02671L275.302 -8.85355ZM279.918 -5.17222L280.926 -5.51323C281.718 -5.81015 282.251 -6.2785 282.525 -6.91827C282.798 -7.55804 282.786 -8.27421 282.394 -9.09223C282.097 -9.88478 281.629 -10.4177 281.084 -10.6655C280.539 -10.9133 279.703 -10.8319 278.695 -10.4909C278.238 -10.3077 277.877 -10.099 277.42 -9.91573L277.059 -9.70703L278.91 -4.83118C279.03 -4.90075 279.366 -5.01444 279.918 -5.17222ZM283.086 0.871326C284.214 0.460733 284.988 -0.146758 285.382 -0.856099C285.776 -1.56544 285.764 -2.2816 285.423 -3.28969C285.056 -4.20274 284.588 -4.73566 284.043 -4.98348C283.404 -5.25676 282.567 -5.17538 281.533 -4.73932C280.31 -4.35419 279.612 -4.0318 279.276 -3.91813L281.241 1.29373C281.501 1.46516 282.173 1.23781 283.086 0.871326Z" fill="black"/>
<path d="M302.826 -19.2015L303.097 -18.3139L301.677 -17.5741L305.023 -6.49198L306.747 -6.84483L307.018 -5.95723L302.029 -4.44218L301.757 -5.32977L303.152 -5.97454L299.737 -17.1772L293.981 -15.4602L297.396 -4.2576L299.12 -4.61045L299.391 -3.72286L294.402 -2.2078L294.13 -3.09539L295.526 -3.74016L292.18 -14.8223L290.576 -14.539L290.305 -15.4266L302.826 -19.2015Z" fill="black"/>
<path d="M497.279 -10.4889L495.955 -11.251L496.279 -12.0809L500.999 -10.307L500.675 -9.47719L499.129 -9.78959L497.355 -5.0702L503.544 -2.69886L505.318 -7.41826L503.994 -8.18035L504.318 -9.0102L509.038 -7.23634L508.713 -6.40651L507.262 -6.69344L503.117 4.21497L504.466 4.88203L504.142 5.71186L499.423 3.93803L499.747 3.10818L501.268 3.51562L503.238 -1.55846L497.049 -3.92979L495.078 1.14428L496.497 1.93183L496.173 2.76168L491.384 0.867335L491.708 0.0374888L493.229 0.444925L497.279 -10.4889Z" fill="black"/>
<path d="M515.271 -4.64954L517.19 -3.8297L516.172 9.85199L517.116 10.5122L516.791 11.3421L512.243 9.3086L512.568 8.47875L514.063 8.98122L514.447 6.02834L509.423 3.86754L507.526 6.00739L508.945 6.79494L508.62 7.62479L504.522 5.81367L504.846 4.98382L505.987 5.28939L515.271 -4.64954ZM515.216 -1.40475L515.459 -3.07125L514.386 -1.72895L510.274 2.97495L514.657 4.86249L515.216 -1.40475Z" fill="black"/>
<path d="M528.982 3.09888L527.26 1.92435L527.679 1.11998L532.055 3.41309L530.549 12.0748L530.008 14.4761L531.613 12.6655L537.781 6.37327L542.158 8.6664L541.738 9.47077L539.794 8.74594L535.743 19.6798L537.111 20.6574L536.692 21.4618L531.961 18.9718L532.38 18.1674L533.945 18.7904L537.059 10.9672L538.382 7.55279L536.415 9.57213L529.181 16.801L528.117 16.2103L529.611 6.83248L530.268 3.23984L528.332 6.28591L523.773 13.4166L525.331 14.4452L524.911 15.2495L520.63 12.9819L521.049 12.1775L522.519 12.775L528.982 3.09888Z" fill="black"/>
<path d="M548.352 12.1595L550.1 13.239L547.51 26.7033L548.454 27.3636L548.035 28.168L543.804 25.7102L544.223 24.9059L545.693 25.5034L546.336 22.7219L541.682 19.9468L539.524 21.9152L540.797 22.8674L540.378 23.6718L536.597 21.4364L537.016 20.632L538.131 21.0326L548.352 12.1595ZM547.917 15.3025L548.35 13.6869L547.113 14.8832L542.411 19.1238L546.547 21.556L547.917 15.3025Z" fill="black"/>
<path d="M556.621 18.5512L555.564 17.5549L556.078 16.776L558.155 18.1474C558.51 18.3443 558.934 18.6617 559.289 18.8586C559.903 19.2269 560.448 19.4747 560.967 19.8176C562.43 20.8207 563.392 21.7915 563.638 22.7741C563.884 23.7567 563.699 24.8276 563.013 25.8661C562.473 26.7401 561.82 27.278 561.002 27.6699C560.184 28.0619 559.347 28.1433 558.467 28.0091C557.586 27.875 556.661 27.5253 555.787 26.9855C555.432 26.7887 555.173 26.6172 554.843 26.3253C554.489 26.1284 554.324 25.9825 554.255 25.862L552.001 29.3323L554.027 30.8938L553.512 31.6727L548.389 28.3646L548.904 27.5857L550.348 28.2782L556.621 18.5512ZM556.301 26.2067C557.175 26.7464 557.935 26.9501 558.798 26.7737C559.66 26.5973 560.434 25.9898 561.17 24.7612C561.71 23.8872 561.939 23.0319 561.712 22.3599C561.484 21.6878 560.947 21.0344 560.003 20.3741C559.648 20.1772 559.294 19.9804 558.844 19.758C558.584 19.5866 558.394 19.5356 558.394 19.5356L554.769 25.083C555.098 25.375 555.522 25.6924 556.301 26.2067Z" fill="black"/>
<path d="M561.03 35.9278C560.594 34.8942 560.494 33.747 560.679 32.6762C560.864 31.6054 561.411 30.3258 562.243 29.1227C563.049 28.0145 563.994 27.1474 565.053 26.6163C566.112 26.0852 567.285 25.8902 568.476 26.0057C569.668 26.1212 570.783 26.5218 571.796 27.3025C572.575 27.8168 573.467 28.6671 574.334 29.6125L574.828 30.0503L572.708 32.6399L571.67 31.9542L572.661 29.7752C572.617 29.5597 572.383 29.2932 572.174 28.9317C571.965 28.5703 571.446 28.2274 570.927 27.8845C570.243 27.3957 569.578 27.2175 568.766 27.2038C567.955 27.1902 567.163 27.4871 566.414 27.9996C565.666 28.512 564.841 29.3096 564.181 30.2531C563.52 31.1966 563.05 32.191 562.701 33.1159C562.446 34.0662 562.312 34.947 562.583 35.8346C562.855 36.7222 563.297 37.3501 564.076 37.8644C564.596 38.2073 565.02 38.5246 565.4 38.6265C565.78 38.7284 566.065 38.8048 566.376 38.7861L568.088 37.7171L568.981 38.5674L567.039 40.4917C566.78 40.3203 566.4 40.2185 565.95 39.9961C565.475 39.8688 565.12 39.6719 564.645 39.5446C564.29 39.3477 563.84 39.1253 563.321 38.7825C562.334 37.9067 561.466 36.9613 561.03 35.9278Z" fill="black"/>
<path d="M588.29 39.8709L587.681 40.6244L586.123 39.5958L580.201 46.8706L582.864 46.0563L591.149 44.4057L591.466 43.9815L590.365 42.7697L590.974 42.0162L594.976 45.3293L594.367 46.0827L593.043 45.3206L585.636 54.3365L586.763 55.4533L586.179 56.1117L582.178 52.7986L582.761 52.1402L584.155 53.0228L590.197 45.6784L587.75 46.4487L579.249 48.1433L578.811 48.6372L580.007 49.8744L579.423 50.5328L575.327 47.1943L575.911 46.5359L577.209 47.3931L584.616 38.3772L583.584 37.2859L584.193 36.5324L588.29 39.8709Z" fill="black"/>
<path d="M597.767 48.216C598.312 48.4639 598.641 48.7558 598.996 48.9527C599.351 49.1495 599.68 49.4415 599.94 49.6129C601.092 50.6346 601.838 51.6495 602.084 52.6322C602.33 53.6148 602.101 54.4701 601.397 55.1981C600.692 55.9261 599.969 56.3435 599.063 56.3044C598.227 56.3857 597.371 56.1566 596.592 55.6423C597.39 56.4671 597.877 57.3106 597.958 58.1473C598.04 58.984 597.715 59.8138 597.132 60.4722C596.256 61.4598 595.197 61.9909 594.101 61.9009C592.979 61.9059 591.82 61.2897 590.408 60.0966C589.819 59.6332 589.446 59.1258 589.072 58.6183C588.699 58.1108 588.49 57.7494 588.256 57.4829C588.117 57.2419 587.978 57.0009 587.908 56.8804L590.332 54.6778L590.99 55.2617L589.809 57.3897C590.036 58.0618 590.574 58.7152 591.302 59.4195C591.961 60.0034 592.505 60.2512 593.247 60.1443C593.894 60.012 594.591 59.6896 595.201 58.9362C595.759 58.3728 595.937 57.7076 596.02 57.0169C596.104 56.3262 595.591 55.5777 594.768 54.8479L593.78 53.9721L594.485 53.2442L595.308 53.974C595.732 54.2914 596.156 54.6087 596.632 54.7361C597.107 54.8634 597.607 54.8957 598.159 54.7379C598.71 54.5801 599.097 54.2764 599.535 53.7826C600.119 53.1241 600.367 52.5794 600.235 51.9328C600.197 51.3117 599.824 50.8042 599.166 50.2204C598.767 49.808 598.412 49.6111 597.962 49.3887C597.608 49.1918 597.297 49.2105 597.082 49.2546L595.68 50.3049L594.762 49.5497L596.59 47.2893C596.893 47.6763 597.248 47.8732 597.767 48.216Z" fill="black"/>
<path d="M608.908 59.859L608.022 58.6031L608.701 57.9701L610.46 59.7658C610.79 60.0577 611.188 60.4701 611.682 60.908C612.176 61.3459 612.505 61.6378 612.67 61.7838C613.866 63.021 614.613 64.036 614.669 64.9676C614.845 65.8298 614.521 66.6596 613.817 67.3876C613.138 68.0205 612.44 68.3429 611.699 68.4498C610.957 68.5566 610.102 68.3274 609.323 67.8132C610.215 68.6635 610.702 69.507 610.758 70.4387C610.814 71.3704 610.515 72.1052 609.811 72.8331C608.961 73.7257 607.832 74.1363 606.736 74.0463C605.544 73.9308 604.221 73.1687 602.765 71.76C602.436 71.4681 602.132 71.0811 601.898 70.8146C601.265 70.1358 600.866 69.7233 600.701 69.5774L598.942 67.7817L599.621 67.1488L600.893 68.1009L608.908 59.859ZM603.374 71.0065C604.267 71.8569 605.046 72.3711 605.857 72.3848C606.668 72.3984 607.366 72.076 608.044 71.4431C608.723 70.8101 609.022 70.0753 608.985 69.4542C608.948 68.8331 608.53 68.1101 607.733 67.2852C606.84 66.4349 606.277 65.8765 606.042 65.6101L602.134 69.5537C602.178 69.7693 602.672 70.2072 603.374 71.0065ZM607.595 65.5169L608.323 66.2212C608.982 66.8051 609.596 67.1734 610.217 67.1361C610.838 67.0988 611.536 66.7765 612.12 66.118C612.703 65.4596 613.046 64.9403 613.009 64.3192C612.972 63.6981 612.554 62.9751 611.826 62.2708C611.497 61.9788 611.168 61.6869 610.744 61.3695L610.414 61.0776L606.772 64.7871C606.962 64.838 607.196 65.1045 607.595 65.5169Z" fill="black"/>
<path d="M621.209 70.5905L622.639 72.0943L616.256 84.1344L616.907 85.1239L616.228 85.7568L612.924 82.1214L613.603 81.4885L614.755 82.5102L616.254 79.9579L612.552 75.9101L609.882 77.1301L610.863 78.4114L610.184 79.0444L607.184 75.7959L607.863 75.163L608.781 75.9183L621.209 70.5905ZM619.729 73.4534L620.637 71.9651L619.096 72.7745L613.395 75.4231L616.629 78.938L619.729 73.4534Z" fill="black"/>
<path d="M618.653 87.7308C618.458 86.5582 618.643 85.4873 619.139 84.3979C619.634 83.3084 620.415 82.2953 621.576 81.3841C622.642 80.4474 623.796 79.9417 624.994 79.6517C626.192 79.3616 627.384 79.4771 628.499 79.8777C629.613 80.2783 630.557 80.9385 631.399 81.9789C632.006 82.7528 632.658 83.7422 633.258 84.9218L633.511 85.4988L630.828 87.5299L630.056 86.6101L631.592 84.6789C631.548 84.4634 631.529 84.1528 631.32 83.7913C631.112 83.4299 630.833 82.9479 630.435 82.5354C629.897 81.882 629.282 81.5137 628.522 81.31C627.762 81.1063 626.925 81.1877 626.038 81.4591C625.15 81.7306 624.186 82.2871 623.266 83.0592C622.346 83.8313 621.616 84.6543 621.102 85.4332C620.562 86.3072 620.333 87.1625 620.32 87.9737C620.306 88.7849 620.603 89.5774 621.21 90.3513C621.679 90.8843 622.008 91.1762 622.363 91.3731C622.717 91.57 622.977 91.7414 623.288 91.7228L625.183 91.1103L625.835 92.0997L623.52 93.5166C623.355 93.3706 623.026 93.0787 622.602 92.7613C622.152 92.5389 621.823 92.247 621.494 91.9551C621.164 91.6632 620.74 91.3458 620.367 90.8383C619.379 89.9625 618.848 88.9035 618.653 87.7308Z" fill="black"/>
<path d="M637.677 94.6615C638.824 94.5614 639.8 94.721 640.725 95.0707C641.65 95.4204 642.473 96.1502 643.08 96.9241C643.827 97.939 644.193 98.8521 644.319 99.9043C644.349 100.931 644.189 101.907 643.624 102.876C643.059 103.845 642.304 104.763 641.168 105.579C640.008 106.49 638.733 107.065 637.535 107.356C636.337 107.646 635.24 107.556 634.125 107.155C633.01 106.754 632.257 106.145 631.58 105.251C630.833 104.236 630.397 103.202 630.272 102.15C630.146 101.098 630.401 100.147 630.871 99.153C631.436 98.184 632.192 97.266 633.232 96.4243L631.435 94.0076L627.083 97.3232L627.918 98.7692L627.17 99.2817L624.088 95.1966L624.837 94.6841L625.963 95.8009L635.174 88.7962L634.409 87.4707L635.183 86.8632L638.195 90.8278L637.421 91.4353L636.294 90.3185L632.329 93.3305L634.126 95.7473C635.496 95.1976 636.599 94.882 637.677 94.6615ZM639.297 96.2161C638.055 96.2907 636.565 96.91 634.897 98.1945C633.469 99.3399 632.473 100.397 632.047 101.607C631.621 102.817 631.746 103.869 632.493 104.884C633.265 105.804 634.165 106.249 635.432 106.079C636.675 106.005 638.095 105.265 639.738 104.075C641.165 102.93 642.162 101.873 642.588 100.663C643.014 99.4527 642.888 98.4006 642.211 97.5061C641.534 96.6117 640.54 96.1415 639.297 96.2161Z" fill="black"/>
<path d="M645.626 114.413C645.422 115.173 644.952 116.168 644.431 117.352C644.012 118.156 643.833 118.822 643.636 119.176C643.535 119.556 643.433 119.937 643.502 120.057L643.73 120.729L642.981 121.242L641.653 119.358C641.513 119.117 641.52 118.711 641.768 118.166C642.016 117.622 642.34 116.792 642.81 115.797C643.426 114.638 643.776 113.713 644.049 113.074C644.323 112.434 644.26 111.908 644.146 111.572L643.495 110.582L639.124 113.587L639.839 115.103L639.09 115.615L636.25 111.391L636.998 110.879L638.005 112.065L647.588 105.568L646.944 104.173L647.692 103.66L650.463 107.764L649.715 108.277L648.708 107.09L644.243 110.07L645.103 111.421L651.688 111.555L650.948 110.135L651.697 109.622L654.233 113.46L653.485 113.972L652.453 112.881L645.704 112.6C645.887 113.057 645.83 113.653 645.626 114.413Z" fill="black"/>
<path d="M645.253 123.786C645.318 122.784 645.598 121.739 646.353 120.821C647.013 119.877 647.959 119.01 649.164 118.315C650.394 117.524 651.618 117.139 652.765 117.039C654.007 116.964 655.078 117.149 656.073 117.619C657.067 118.089 657.89 118.819 658.516 119.904C659.49 121.591 659.799 123.099 659.271 124.69C658.768 126.185 657.601 127.501 655.768 128.64C654.537 129.431 653.314 129.816 652.046 129.986C650.804 130.06 649.733 129.875 648.643 129.379C647.649 128.909 646.852 128.084 646.2 127.095C645.504 125.89 645.284 124.812 645.253 123.786ZM654.791 118.6C653.574 118.58 652.015 119.078 650.302 120.147C648.71 121.147 647.619 122.179 647.098 123.363C646.482 124.522 646.607 125.574 647.233 126.659C647.885 127.648 648.854 128.213 650.071 128.234C651.383 128.28 652.847 127.756 654.56 126.687C656.152 125.687 657.243 124.655 657.764 123.471C658.26 122.381 658.255 121.26 657.629 120.175C656.977 119.186 656.103 118.646 654.791 118.6Z" fill="black"/>
<path d="M662.283 128.654L661.759 127.19L662.602 126.703L663.854 128.872C664.063 129.233 664.341 129.715 664.715 130.222C665.088 130.73 665.297 131.091 665.436 131.332C666.245 132.873 666.656 134.002 666.496 134.978C666.337 135.954 665.873 136.542 665.004 137.124C664.281 137.542 663.419 137.718 662.633 137.61C661.848 137.501 661.138 137.107 660.531 136.333C661.157 137.418 661.333 138.28 661.174 139.256C661.04 140.136 660.456 140.795 659.612 141.282C658.528 141.908 657.381 142.008 656.266 141.607C655.151 141.207 654.119 140.115 653.076 138.308C652.867 137.947 652.684 137.49 652.475 137.128C651.988 136.285 651.735 135.708 651.665 135.587L650.413 133.419L651.231 133.027L652.117 134.282L662.283 128.654ZM653.824 137.796C654.45 138.88 655.083 139.559 655.843 139.763C656.604 139.966 657.345 139.86 658.189 139.373C659.032 138.886 659.496 138.297 659.648 137.726C659.801 137.156 659.625 136.294 659.068 135.33C658.442 134.246 658.025 133.523 657.885 133.282L652.996 135.944C653.084 136.375 653.337 136.952 653.824 137.796ZM659.406 133.689L659.867 134.628C660.285 135.351 660.874 135.814 661.444 135.967C662.109 136.145 662.756 136.013 663.599 135.526C664.322 135.108 664.76 134.615 664.913 134.044C665.066 133.474 664.864 132.707 664.307 131.743C664.099 131.382 663.795 130.995 663.612 130.538L663.403 130.177L658.849 132.725C658.989 132.966 659.128 133.207 659.406 133.689Z" fill="black"/>
<path d="M676.842 154.149L676.024 154.541L675.163 153.19L664.745 158.241L665.313 159.921L664.495 160.313L662.213 155.526L663.031 155.134L663.891 156.485L674.405 151.459L671.775 146.069L661.236 151.189L661.804 152.87L660.986 153.262L658.678 148.569L659.496 148.177L660.287 149.407L670.706 144.356L670.207 142.797L671.025 142.405L676.842 154.149Z" fill="black"/>
<path d="M666.538 163.713C666.723 162.642 667.263 161.768 667.993 160.945C668.817 160.147 669.832 159.401 671.107 158.826C672.381 158.25 673.675 157.986 674.866 158.101C676.057 158.217 677.103 158.497 678.046 159.157C678.99 159.817 679.667 160.712 680.103 161.745C680.836 163.571 680.929 165.124 680.141 166.543C679.449 167.987 678.022 169.132 676.075 169.935C674.705 170.485 673.412 170.749 672.221 170.634C671.03 170.518 669.889 170.213 668.946 169.553C668.002 168.892 667.325 167.998 666.794 166.939C666.478 165.836 666.283 164.663 666.538 163.713ZM676.695 160.017C675.434 159.781 673.926 160.09 671.979 160.893C670.248 161.651 668.992 162.537 668.306 163.575C667.621 164.614 667.436 165.685 667.941 166.839C668.447 167.993 669.295 168.628 670.556 168.864C671.817 169.1 673.421 168.816 675.272 167.988C677.003 167.23 678.259 166.344 678.945 165.306C679.631 164.267 679.721 163.171 679.31 162.042C678.805 160.888 677.956 160.253 676.695 160.017Z" fill="black"/>
<path d="M676.448 176.146C674.723 176.499 673.361 176.643 672.385 176.484C671.91 176.356 671.434 176.229 671.2 175.963C670.871 175.671 670.637 175.404 670.454 174.948C670.201 174.371 670.113 173.94 670.094 173.629L671.489 172.984C671.508 173.295 671.691 173.751 671.944 174.328C671.988 174.544 672.152 174.69 672.317 174.836C672.482 174.982 672.672 175.033 672.957 175.109C674.693 175.472 677.71 174.855 681.914 173.231L683.284 172.681L682.722 170.596L683.635 170.229L687.451 180.317L686.538 180.683L685.729 179.142L674.848 183.255L675.296 185.005L674.409 185.276L672.4 179.849L673.287 179.577L674.141 181.334L685.021 177.221L683.72 173.715L682.135 174.309C680.042 175.276 678.172 175.793 676.448 176.146Z" fill="black"/>
<path d="M687.529 184.208L687.22 182.7L688.108 182.428L691.082 191.475L688.438 192.6L688.097 191.592L689.619 190.472L688.262 186.034L683.247 187.644L684.296 190.574L685.874 190.385L686.215 191.394L682.087 192.732L681.746 191.724L683.167 190.984L682.239 187.985L676.983 189.735L678.809 194.706L681.407 194.892L681.412 196.014L678.135 196.46L674.864 186.62L675.751 186.349L676.396 187.744L687.529 184.208Z" fill="black"/>
<path d="M692.315 199.038L691.292 196.013L687.299 196.471L687.008 195.273L691.871 194.233L695.07 205.48L690.271 207.046L689.955 205.943L693.563 204.261L692.781 201.098L681.44 204.272L681.969 206.859L681.081 207.13L679.144 200.296L680.031 200.024L680.853 202.281L692.315 199.038Z" fill="black"/>
<path d="M689.374 214.954L689.198 214.092C688.964 213.826 688.488 213.698 687.823 213.52C687.158 213.342 686.372 213.233 685.396 213.074C684.421 212.914 683.755 212.736 683.28 212.608C682.805 212.481 682.546 212.31 682.501 212.094L681.947 209.603L682.809 209.426L683.131 210.124C683.201 210.244 683.46 210.416 683.815 210.613C684.195 210.715 684.765 210.867 685.5 211.166C686.356 211.395 687.116 211.599 687.781 211.777C688.326 212.025 688.775 212.247 689.105 212.539C689.144 211.633 689.443 210.898 689.906 210.309C690.49 209.651 691.213 209.234 692.075 209.057C693.488 208.723 694.654 208.934 695.382 209.638C696.11 210.342 696.711 211.522 697.089 213.151C697.203 213.487 697.266 214.013 697.328 214.539C697.366 215.16 697.454 215.591 697.568 215.927L698.192 218.539L697.304 218.811L696.685 217.321L685.376 219.994L685.633 221.693L684.797 221.774L683.479 216.43L684.341 216.254L684.909 217.934L689.702 216.774L689.374 214.954ZM696.371 214.69C696.309 214.164 696.246 213.638 696.158 213.207C695.912 212.224 695.564 211.622 695.07 211.184C694.576 210.746 693.765 210.732 692.782 210.978C691.8 211.224 691.077 211.642 690.708 212.256C690.34 212.87 690.231 213.656 690.477 214.639C690.723 215.621 690.856 216.268 690.995 216.509L696.555 215.147L696.371 214.69Z" fill="black"/>
<path d="M698.558 225.156L697.871 222.018L693.859 222.166L693.664 220.993L698.615 220.384L700.857 231.782L695.969 232.917L695.774 231.744L699.496 230.399L699.025 227.216L687.437 229.408L687.751 232.039L686.888 232.215L685.503 225.223L686.365 225.047L687.065 227.373L698.558 225.156Z" fill="black"/>
<path d="M689.195 242.611C689.666 241.617 690.421 240.699 691.385 240.142C692.374 239.491 693.598 239.105 694.986 238.866C696.349 238.722 697.661 238.768 698.75 239.264C699.865 239.664 700.783 240.42 701.555 241.339C702.327 242.259 702.738 243.388 702.908 244.656C703.059 245.613 703.064 246.735 702.897 248.116L702.839 248.712L699.518 248.942L699.349 247.674L701.606 246.853C701.752 246.689 701.854 246.308 701.86 245.903C701.867 245.497 701.925 244.902 701.767 244.35C701.66 243.608 701.338 242.911 700.775 242.352C700.211 241.794 699.502 241.4 698.552 241.146C697.601 240.891 696.574 240.922 695.332 240.996C694.16 241.191 693.177 241.437 692.238 241.899C691.3 242.36 690.646 242.898 690.158 243.582C689.669 244.266 689.535 245.147 689.616 245.983C689.748 246.63 689.811 247.156 690.02 247.517C690.134 247.853 690.368 248.12 690.602 248.386L692.503 248.896L692.482 250.112L689.763 249.995C689.719 249.78 689.631 249.349 689.353 248.867C689.169 248.41 688.961 248.049 688.873 247.617C688.784 247.186 688.601 246.73 688.564 246.109C688.584 244.892 688.7 243.701 689.195 242.611Z" fill="black"/>
<path d="M704.098 256.179L703.166 256.235L702.744 254.39L693.351 255.235L695.738 256.587L702.818 261.336L703.344 261.274L703.397 259.556L704.329 259.5L704.791 264.615L703.86 264.671L703.525 263.258L691.933 264.327L691.905 265.95L690.974 266.006L690.536 260.796L691.468 260.74L691.846 262.369L701.335 261.55L699.017 260.318L691.867 255.448L691.246 255.486L691.193 257.203L690.262 257.259L689.824 252.049L690.756 251.993L691.065 253.502L702.658 252.432L702.754 250.93L703.686 250.874L704.098 256.179Z" fill="black"/>
<path d="M705.379 276.486L700.505 276.81L700.431 275.568L704.19 274.843L704.163 270.762L692.412 271.28L692.358 274.525L691.426 274.581L691.048 267.248L691.98 267.192L692.256 269.201L703.817 268.632L703.946 266.629L704.878 266.574L705.379 276.486Z" fill="black"/>
<path d="M704.298 279.761L704.49 278.285L705.396 278.324L705.358 283.407L704.452 283.368L704.264 281.789L699.276 281.777L699.237 288.387L704.224 288.4L704.416 286.923L705.322 286.962L705.31 291.95L704.404 291.911L704.19 290.428L692.567 290.471L692.375 291.947L691.469 291.908L691.481 286.92L692.387 286.959L692.576 288.538L697.969 288.557L698.008 281.947L692.615 281.928L692.398 283.499L691.492 283.46L691.434 278.352L692.34 278.391L692.554 279.874L704.298 279.761Z" fill="black"/>
<path d="M705.34 298.68L705.306 300.708L692.233 304.641L692.023 305.807L691.116 305.768L691.319 300.831L692.225 300.87L692.318 302.423L695.171 301.66L695.406 296.222L692.726 295.199L692.509 296.77L691.602 296.731L691.773 292.295L692.679 292.334L692.779 293.481L705.34 298.68ZM702.29 299.799L703.92 299.42L702.234 298.867L696.305 296.667L696.059 301.388L702.29 299.799Z" fill="black"/>
<path d="M695.704 311.072C693.994 310.613 692.784 310.187 691.935 309.553C691.511 309.235 691.182 308.943 691.068 308.607C690.86 308.246 690.866 307.84 690.873 307.434C690.931 306.839 690.938 306.433 691.109 306.174L692.637 306.175C692.56 306.461 692.528 306.961 692.47 307.557C692.419 307.747 692.463 307.962 692.603 308.203C692.647 308.419 692.811 308.565 693.071 308.736C694.413 309.809 697.48 310.529 701.96 310.914L703.462 311.011L703.832 308.87L704.738 308.909L703.794 319.656L702.887 319.617L702.845 317.874L691.312 316.821L690.923 318.652L690.017 318.613L690.544 312.846L691.45 312.886L691.441 314.818L702.974 315.872L703.277 312.082L701.585 311.934C699.297 311.729 697.346 311.41 695.704 311.072Z" fill="black"/>
<path d="M697.346 326.994C697.154 328.47 696.633 329.655 695.739 330.332C694.939 331.034 693.862 331.255 692.575 331.114C691.194 330.947 690.155 330.262 689.504 329.272C688.852 328.283 688.683 327.015 688.874 325.539C688.925 325.348 688.976 325.158 688.932 324.943C688.888 324.727 689.034 324.563 689.11 324.278C689.289 323.612 689.372 322.922 689.525 322.352L689.902 319.804L690.782 319.938L690.755 321.561L702.326 323.235L702.828 321.74L703.709 321.874L702.904 327.159L702.023 327.025L701.911 325.161L697.603 324.516L697.346 326.994ZM690.112 324.342C690.061 324.532 689.959 324.912 689.952 325.318C689.767 326.389 689.969 327.156 690.507 327.809C691.045 328.463 691.754 328.857 692.85 328.947C693.826 329.106 694.688 328.93 695.221 328.461C695.849 328.019 696.148 327.284 696.333 326.213L696.627 324.356L690.341 323.487C690.239 323.867 690.163 324.152 690.112 324.342ZM701.051 339.394L700.171 339.26L700.223 337.543L688.748 335.894L688.29 337.605L687.409 337.471L688.144 332.065L689.025 332.2L688.972 333.917L700.448 335.566L700.906 333.855L701.787 333.989L701.051 339.394Z" fill="black"/>
<path d="M698.24 347.605L698.812 346.23L699.668 346.459L698.534 351.452L697.678 351.223L697.801 349.626L692.903 348.517L691.482 354.961L696.38 356.07L696.952 354.695L697.807 354.924L696.698 359.822L695.843 359.593L695.94 358.091L684.573 355.656L684.096 357.056L683.241 356.827L684.349 351.929L685.205 352.159L685.108 353.66L690.411 354.776L691.832 348.332L686.529 347.217L686.001 348.807L685.146 348.578L686.28 343.585L687.135 343.814L687.038 345.316L698.24 347.605Z" fill="black"/>
<path d="M695.208 366.145L694.673 368.141L681.096 369.392L680.601 370.481L679.745 370.252L680.924 365.475L681.779 365.704L681.561 367.276L684.452 367.133L685.757 361.881L683.3 360.408L682.702 361.877L681.847 361.648L682.898 357.346L683.753 357.575L683.638 358.767L695.208 366.145ZM692.051 366.521L693.794 366.479L692.28 365.666L686.942 362.402L685.814 366.989L692.051 366.521Z" fill="black"/>
<path d="M689.682 381.063L690.597 379.17L691.427 379.494L689.869 384.169L681.066 383.949L678.658 383.813L680.761 385.09L687.929 390.27L686.37 394.945L685.54 394.621L685.98 392.6L674.467 390.33L673.775 391.774L672.945 391.45L674.631 386.299L675.461 386.623L675.123 388.265L683.372 390.169L686.939 390.921L684.628 389.284L676.377 383.202L676.778 382.087L686.253 382.08L689.998 382.167L686.635 380.654L678.888 377.254L678.119 378.984L677.289 378.659L678.822 374.079L679.652 374.403L679.339 375.949L689.682 381.063Z" fill="black"/>
<path d="M683.751 401.679L683.026 403.623L669.407 403.132L668.842 404.101L668.012 403.777L669.856 399.178L670.686 399.502L670.278 401.022L673.187 401.191L675.158 396.117L672.897 394.289L672.11 395.707L671.28 395.383L672.901 391.234L673.731 391.558L673.52 392.724L683.751 401.679ZM680.506 401.624L682.198 401.772L680.831 400.794L675.981 396.846L674.283 401.281L680.506 401.624Z" fill="black"/>
<path d="M678.683 410.71L679.515 409.507L680.344 409.831L679.328 412.105C679.105 412.555 679.003 412.935 678.807 413.29C678.533 413.929 678.38 414.5 678.133 415.044C677.389 416.679 676.608 417.692 675.67 418.153C674.757 418.52 673.73 418.55 672.451 418.004C671.551 417.559 670.867 417.07 670.355 416.322C669.842 415.573 669.641 414.806 669.585 413.874C669.529 412.943 669.783 411.992 670.228 411.093C670.425 410.738 670.501 410.453 670.698 410.098C670.895 409.744 670.946 409.554 671.067 409.484L667.323 407.87L666.116 410.093L665.286 409.769L667.79 404.226L668.62 404.551L668.117 406.046L678.683 410.71ZM671.127 411.538C670.683 412.437 670.669 413.248 670.941 414.136C671.212 415.023 671.965 415.633 673.245 416.179C674.239 416.649 675.051 416.663 675.628 416.41C676.325 416.088 676.814 415.404 677.284 414.41C677.481 414.055 677.583 413.675 677.71 413.2C677.787 412.915 677.838 412.724 677.863 412.629L671.75 409.973C671.674 410.258 671.426 410.803 671.127 411.538Z" fill="black"/>
<path d="M662.216 417.808C663.18 417.251 664.283 416.935 665.404 416.93C666.621 416.951 667.857 417.282 669.111 417.924C670.365 418.565 671.378 419.346 672.03 420.335C672.776 421.35 673.092 422.453 673.192 423.601C673.292 424.748 673.081 425.914 672.465 427.073C672.02 427.972 671.36 428.916 670.554 430.024L670.211 430.543L667.279 428.942L667.774 427.853L670.15 428.49C670.366 428.445 670.632 428.211 670.924 427.882C671.216 427.553 671.438 427.103 671.781 426.584C672.175 425.875 672.258 425.184 672.082 424.322C671.975 423.58 671.557 422.857 670.95 422.083C670.317 421.404 669.469 420.77 668.31 420.153C667.22 419.658 666.2 419.283 665.224 419.123C664.249 418.963 663.317 419.019 662.499 419.411C661.706 419.708 661.148 420.272 660.703 421.171C660.43 421.811 660.208 422.26 660.201 422.666C660.099 423.046 660.118 423.357 660.231 423.693L661.567 425.171L660.906 426.115L658.69 424.502C658.767 424.217 658.868 423.837 658.996 423.362C659.123 422.887 659.13 422.481 659.257 422.006C659.359 421.626 659.607 421.081 659.855 420.536C660.471 419.377 661.226 418.459 662.216 417.808Z" fill="black"/>
<path d="M662.588 445.307L661.809 444.793L662.578 443.063L654.472 438.345L655.648 440.799L658.591 448.819L659.041 449.042L660.114 447.7L660.893 448.214L658.289 452.609L657.51 452.095L658.082 450.72L648.038 444.871L647.085 446.144L646.281 445.725L648.91 441.234L649.715 441.654L648.997 443.193L657.173 448.032L655.946 445.768L653.028 437.652L652.413 437.284L651.315 438.721L650.511 438.302L653.165 433.717L653.97 434.136L653.372 435.606L663.417 441.455L664.343 440.277L665.122 440.791L662.588 445.307Z" fill="black"/>
<path d="M655.87 455.933C655.622 456.478 655.495 456.953 655.298 457.308C655.101 457.663 654.904 458.017 654.733 458.277C653.876 459.575 653.026 460.468 652.113 460.834C651.2 461.201 650.293 461.162 649.419 460.622C648.545 460.082 648.128 459.359 647.952 458.497C647.775 457.635 647.884 456.849 648.234 455.924C647.573 456.868 646.799 457.475 645.937 457.652C645.075 457.828 644.289 457.719 643.51 457.205C642.377 456.494 641.7 455.6 641.6 454.452C641.474 453.4 641.831 452.07 642.859 450.512C643.228 449.898 643.666 449.404 644.103 448.91C644.516 448.511 644.903 448.207 645.169 447.973C645.436 447.739 645.582 447.574 645.677 447.6L648.197 449.599L647.682 450.378L645.383 449.456C644.78 449.804 644.222 450.368 643.562 451.311C643.073 451.995 642.99 452.686 643.122 453.332C643.254 453.979 643.818 454.537 644.692 455.077C645.306 455.445 645.971 455.624 646.713 455.517C647.455 455.41 648.108 454.872 648.648 453.998L649.359 452.865L650.233 453.404L649.693 454.278C649.376 454.702 649.248 455.178 649.121 455.653C649.089 456.153 649.152 456.679 649.335 457.136C649.518 457.593 649.917 458.005 650.436 458.348C651.12 458.837 651.811 458.92 652.362 458.762C652.914 458.604 653.447 458.136 653.936 457.452C654.253 457.028 654.475 456.578 654.482 456.173C654.584 455.792 654.565 455.482 654.426 455.241L653.135 453.978L653.795 453.035L656.278 454.413C656.22 455.008 656.023 455.363 655.87 455.933Z" fill="black"/>
<path d="M646.083 468.895L647.199 467.768L647.978 468.282L646.512 470.334C646.22 470.663 645.997 471.113 645.629 471.727C645.286 472.247 645.089 472.601 644.918 472.861C643.94 474.229 642.995 475.096 642.107 475.367C641.22 475.639 640.339 475.505 639.586 474.895C638.902 474.406 638.364 473.753 638.187 472.891C637.986 472.124 638.094 471.338 638.418 470.508C637.758 471.452 636.984 472.059 636.097 472.331C635.235 472.507 634.354 472.373 633.6 471.764C632.587 470.983 632.031 470.019 631.931 468.872C631.831 467.724 632.333 466.229 633.577 464.627C633.869 464.298 634.066 463.944 634.358 463.614C634.967 462.861 635.31 462.342 635.431 462.272L636.897 460.22L637.676 460.735L636.914 462.058L646.083 468.895ZM634.166 465.091C633.385 466.104 633.131 467.054 633.142 467.77C633.154 468.487 633.667 469.235 634.446 469.749C635.199 470.359 635.959 470.562 636.606 470.43C637.253 470.298 637.906 469.76 638.541 468.911C639.321 467.898 639.715 467.189 639.887 466.929L635.359 463.679C635.239 463.748 634.801 464.242 634.166 465.091ZM640.221 468.343L639.586 469.191C639.097 469.875 638.919 470.54 639.051 471.187C639.184 471.834 639.627 472.462 640.31 472.95C640.994 473.439 641.66 473.618 642.281 473.58C642.832 473.422 643.46 472.98 644.12 472.036C644.412 471.707 644.635 471.257 644.832 470.902L645.029 470.548L640.856 467.494C640.805 467.684 640.538 467.919 640.221 468.343Z" fill="black"/>
<path d="M637.307 482.637L636.063 484.239L623.108 479.749L622.283 480.546L621.53 479.937L624.602 476.075L625.355 476.684L624.498 477.982L627.178 479.006L630.567 474.719L628.96 472.354L627.844 473.48L627.09 472.871L629.845 469.433L630.598 470.042L630.007 471.106L637.307 482.637ZM634.222 481.606L635.787 482.229L634.736 480.827L631.244 475.614L628.318 479.311L634.222 481.606Z" fill="black"/>
<path d="M619.955 482.775C621.058 482.459 622.18 482.454 623.32 482.76C624.461 483.065 625.594 483.776 626.677 484.678C627.759 485.579 628.506 486.594 628.917 487.722C629.327 488.851 629.427 489.998 629.217 491.164C629.006 492.33 628.416 493.394 627.66 494.312C627.051 495.065 626.131 495.837 625.091 496.679L624.583 497.052L622.165 494.673L623.015 493.78L625.143 494.962C625.359 494.918 625.695 494.804 626.082 494.5C626.443 494.291 626.856 493.893 627.199 493.373C627.757 492.81 628.056 492.075 628.07 491.264C628.178 490.478 627.976 489.711 627.489 488.868C627.002 488.024 626.42 487.155 625.407 486.375C624.489 485.619 623.641 484.985 622.716 484.635C621.791 484.285 620.91 484.151 620.074 484.232C619.237 484.314 618.514 484.731 617.905 485.485C617.467 485.978 617.149 486.403 617.047 486.783C616.851 487.137 616.869 487.448 616.793 487.733L617.646 489.49L616.726 490.262L615.043 488.181C615.189 488.016 615.386 487.662 615.634 487.117C615.856 486.667 616.053 486.313 616.25 485.958C616.447 485.603 616.764 485.179 617.202 484.685C617.837 483.837 618.852 483.09 619.955 482.775Z" fill="black"/>
<path d="M616.04 502.708C616.355 503.811 616.385 504.838 616.131 505.788C615.876 506.739 615.432 507.638 614.632 508.34C613.782 509.233 612.818 509.79 611.835 510.036C610.853 510.282 609.756 510.192 608.736 509.816C607.716 509.441 606.678 508.756 605.69 507.88C604.633 506.884 603.817 505.748 603.432 504.525C603.021 503.396 602.826 502.223 603.106 501.178C603.291 500.107 603.857 499.138 604.586 498.315C605.437 497.422 606.401 496.866 607.409 496.525C608.391 496.279 609.488 496.369 610.508 496.744C611.527 497.119 612.566 497.805 613.554 498.681L615.667 496.497L611.698 492.683L610.416 493.664L609.783 492.985L613.33 489.25L613.989 489.834L613.037 491.107L621.374 499.146L622.535 498.235L623.168 498.914L619.646 502.554L619.013 501.875L619.965 500.602L616.325 497.081L614.212 499.265C615.193 500.546 615.724 501.605 616.04 502.708ZM614.865 504.43C614.575 503.232 613.715 501.881 612.259 500.473C610.967 499.21 609.644 498.448 608.383 498.212C607.122 497.976 606.019 498.291 605.168 499.184C604.318 500.077 604.063 501.027 604.354 502.225C604.644 503.423 605.504 504.774 607.055 506.208C608.346 507.471 609.575 508.208 610.81 508.539C612.046 508.87 613.054 508.529 613.904 507.636C614.754 506.744 615.035 505.698 614.865 504.43Z" fill="black"/>
<path d="M597.768 513.498C596.982 513.389 595.937 513.109 594.702 512.778C593.846 512.549 593.181 512.371 592.706 512.244C592.326 512.142 592.015 512.16 591.774 512.3L591.077 512.622L590.444 511.943L592.093 510.348C592.334 510.209 592.67 510.095 593.336 510.273C593.906 510.426 594.761 510.655 595.902 510.961C597.112 511.387 598.062 511.642 598.848 511.75C599.513 511.928 600.039 511.866 600.331 511.537L601.156 510.739L597.523 506.812L596.146 507.767L595.513 507.088L599.295 503.62L599.928 504.299L598.906 505.451L606.805 513.984L608.061 513.099L608.694 513.777L605.033 517.176L604.4 516.497L605.352 515.225L601.719 511.297L600.507 512.399L601.399 518.953L602.655 518.067L603.288 518.746L599.894 521.911L599.261 521.232L600.188 520.054L599.441 513.335C599.27 513.595 598.554 513.607 597.768 513.498Z" fill="black"/>
<path d="M588.488 514.678C589.541 514.553 590.612 514.738 591.58 515.303C592.67 515.799 593.563 516.649 594.499 517.715C595.436 518.781 596.037 519.96 596.327 521.159C596.617 522.357 596.622 523.478 596.247 524.498C595.872 525.518 595.306 526.487 594.386 527.259C592.934 528.5 591.374 528.999 589.802 528.781C588.231 528.564 586.768 527.561 585.268 525.936C584.331 524.871 583.731 523.691 583.441 522.493C583.151 521.295 583.146 520.173 583.546 519.058C583.852 517.918 584.487 517.069 585.406 516.297C586.403 515.24 587.436 514.804 588.488 514.678ZM595.05 523.261C594.881 521.993 594.141 520.573 592.805 519.095C591.565 517.642 590.362 516.81 589.152 516.384C587.942 515.958 586.864 516.178 585.944 516.951C585.024 517.723 584.649 518.743 584.819 520.01C584.989 521.278 585.728 522.699 587.038 524.272C588.279 525.725 589.482 526.556 590.692 526.982C591.927 527.313 593.005 527.093 593.925 526.321C594.845 525.549 595.22 524.529 595.05 523.261Z" fill="black"/>
<path d="M586.357 532.136L587.683 531.371L588.29 532.145L586.355 533.663C585.994 533.872 585.581 534.271 585.143 534.765C584.731 535.163 584.344 535.467 584.103 535.606C582.701 536.657 581.642 537.188 580.71 537.244C579.779 537.3 578.974 536.88 578.367 536.107C577.829 535.453 577.532 534.661 577.546 533.849C577.559 533.038 577.858 532.303 578.442 531.645C577.522 532.417 576.609 532.784 575.703 532.744C574.797 532.705 573.992 532.286 573.385 531.512C572.638 530.497 572.323 529.394 572.533 528.228C572.744 527.062 573.696 525.79 575.244 524.575C575.631 524.271 575.992 524.062 576.259 523.828C577.032 523.221 577.514 522.942 577.66 522.778L579.595 521.259L580.108 522.007L578.991 523.134L586.357 532.136ZM575.972 525.279C574.957 526.026 574.442 526.805 574.334 527.59C574.225 528.376 574.427 529.143 575.034 529.917C575.642 530.691 576.256 531.059 576.947 531.142C577.638 531.226 578.335 530.903 579.23 530.226C580.244 529.48 580.898 528.942 581.069 528.682L577.659 524.305C577.278 524.203 576.771 524.576 575.972 525.279ZM580.903 530.063L580.129 530.671C579.476 531.209 579.107 531.823 579.024 532.514C578.941 533.205 579.168 533.877 579.801 534.556C580.339 535.209 580.953 535.577 581.549 535.635C582.145 535.693 582.842 535.37 583.737 534.693C584.124 534.39 584.415 534.06 584.802 533.757L585.069 533.522L581.892 529.412C581.556 529.526 581.29 529.76 580.903 530.063Z" fill="black"/>
<g style="mix-blend-mode:overlay">
<circle cx="171.696" cy="64.1506" r="2" fill="black"/>
</g>
<g style="mix-blend-mode:overlay">
<circle cx="576.195" cy="38.5214" r="2" fill="black"/>
</g>
</g>
</svg>
